<svg width="24" height="24" viewBox="0 0 24 24" fill="none" xmlns="http://www.w3.org/2000/svg">
<path fill-rule="evenodd" clip-rule="evenodd" d="M12 24C18.6274 24 24 18.6274 24 12C24 5.37258 18.6274 0 12 0C5.37258 0 0 5.37258 0 12C0 18.6274 5.37258 24 12 24ZM4.5 20C4.5 20 3 20 3 18.5C3 17 4.5 12.5 12 12.5C17.0946 12.5 16.8829 12.6538 15.5961 13.5883C14.9886 14.0295 14.1414 14.6448 13.5 15.5C12 17.5 12 20 12 20H4.5ZM12 11C13.1935 11 14.3381 10.5259 15.182 9.68198C16.0259 8.83807 16.5 7.69347 16.5 6.5C16.5 5.30653 16.0259 4.16193 15.182 3.31802C14.3381 2.47411 13.1935 2 12 2C10.8065 2 9.66193 2.47411 8.81802 3.31802C7.97411 4.16193 7.5 5.30653 7.5 6.5C7.5 7.69347 7.97411 8.83807 8.81802 9.68198C9.66193 10.5259 10.8065 11 12 11ZM16.8297 14.7937C16.8297 15.0984 16.8297 15.3938 16.9258 15.6703C15.9156 16.8562 13 20.2289 13 20.2289L13.068 21.0797C13.068 21.0797 13.8836 21.8531 14.0055 21.7359C14.3664 21.3844 14.5867 21.1453 14.5867 21.1453L14.7564 20.1293L15.8605 20.048L15.9491 18.9511L17.1123 18.9288L17.1238 17.7548L18.3587 17.8041L18.5697 17.3625C18.933 17.5195 19.2634 17.5828 19.6877 17.5828C21.2931 17.5828 22.5939 16.3312 22.5939 14.7891C22.5939 13.2469 21.2922 12 19.6867 12C18.0812 12 16.8297 13.2516 16.8297 14.7937ZM21.2535 14.25C21.2535 14.4301 21.2001 14.6061 21.1001 14.7559C21 14.9056 20.8578 15.0223 20.6914 15.0912C20.525 15.1602 20.342 15.1782 20.1653 15.1431C19.9887 15.1079 19.8265 15.0212 19.6991 14.8939C19.5718 14.7665 19.4851 14.6043 19.4499 14.4276C19.4148 14.251 19.4328 14.0679 19.5017 13.9015C19.5707 13.7352 19.6874 13.593 19.8371 13.4929C19.9868 13.3929 20.1629 13.3395 20.343 13.3395C20.4626 13.3393 20.581 13.3628 20.6916 13.4085C20.8021 13.4542 20.9025 13.5213 20.9871 13.6059C21.0717 13.6904 21.1387 13.7909 21.1845 13.9014C21.2302 14.0119 21.2536 14.1304 21.2535 14.25Z" fill="white"/>
</svg>
