<svg width="15" height="15" viewBox="0 0 15 15" fill="none" xmlns="http://www.w3.org/2000/svg">
<path d="M11.7372 9.86235C11.6937 9.90589 11.6421 9.94043 11.5853 9.964C11.5284 9.98756 11.4675 9.99969 11.406 9.99969C11.3444 9.99969 11.2835 9.98756 11.2267 9.964C11.1698 9.94043 11.1182 9.90589 11.0747 9.86235L7.49971 6.28797L3.92471 9.86235C3.88121 9.90585 3.82957 9.94035 3.77273 9.9639C3.71589 9.98744 3.65498 9.99956 3.59346 9.99956C3.53194 9.99956 3.47102 9.98744 3.41419 9.9639C3.35735 9.94035 3.30571 9.90585 3.26221 9.86235C3.21871 9.81885 3.1842 9.7672 3.16066 9.71037C3.13712 9.65353 3.125 9.59262 3.125 9.5311C3.125 9.46958 3.13712 9.40866 3.16066 9.35183C3.1842 9.29499 3.21871 9.24335 3.26221 9.19985L7.16846 5.2936C7.21194 5.25006 7.26357 5.21551 7.32041 5.19195C7.37725 5.16838 7.43818 5.15625 7.49971 5.15625C7.56124 5.15625 7.62217 5.16838 7.67901 5.19195C7.73584 5.21551 7.78748 5.25006 7.83096 5.2936L11.7372 9.19985C11.7807 9.24332 11.8153 9.29496 11.8389 9.3518C11.8624 9.40864 11.8746 9.46957 11.8746 9.5311C11.8746 9.59263 11.8624 9.65356 11.8389 9.71039C11.8153 9.76723 11.7807 9.81887 11.7372 9.86235Z" fill="white"/>
</svg>
