<svg width="24" height="24" viewBox="0 0 24 24" fill="none" xmlns="http://www.w3.org/2000/svg">
<path d="M10.8705 5.78979L3.67653 14.0128C2.82753 14.9818 3.51753 16.4998 4.80603 16.4998L19.194 16.4998C19.4824 16.5 19.7647 16.4172 20.0072 16.2611C20.2497 16.105 20.442 15.8823 20.5612 15.6198C20.6804 15.3572 20.7214 15.0658 20.6792 14.7805C20.637 14.4953 20.5136 14.2282 20.3235 14.0113L13.1295 5.79129C12.9887 5.63018 12.8151 5.50105 12.6203 5.41257C12.4255 5.32409 12.214 5.27832 12 5.27832C11.7861 5.27832 11.5746 5.32409 11.3798 5.41257C11.1849 5.50105 11.0113 5.63017 10.8705 5.79129L10.8705 5.78979Z" fill="black"/>
</svg>
