<svg width="15" height="15" viewBox="0 0 15 15" fill="none" xmlns="http://www.w3.org/2000/svg">
<path d="M3.26279 5.13765C3.30627 5.09411 3.35791 5.05957 3.41475 5.036C3.47158 5.01244 3.53251 5.00031 3.59404 5.00031C3.65557 5.00031 3.7165 5.01244 3.77334 5.036C3.83018 5.05957 3.88182 5.09411 3.92529 5.13765L7.50029 8.71203L11.0753 5.13765C11.1188 5.09415 11.1704 5.05965 11.2273 5.0361C11.2841 5.01256 11.345 5.00044 11.4065 5.00044C11.4681 5.00044 11.529 5.01256 11.5858 5.0361C11.6426 5.05965 11.6943 5.09415 11.7378 5.13765C11.7813 5.18115 11.8158 5.2328 11.8393 5.28963C11.8629 5.34647 11.875 5.40738 11.875 5.4689C11.875 5.53042 11.8629 5.59134 11.8393 5.64817C11.8158 5.70501 11.7813 5.75665 11.7378 5.80015L7.83154 9.7064C7.78806 9.74994 7.73643 9.78449 7.67959 9.80805C7.62275 9.83162 7.56182 9.84375 7.50029 9.84375C7.43876 9.84375 7.37783 9.83162 7.32099 9.80805C7.26416 9.78449 7.21252 9.74994 7.16904 9.7064L3.26279 5.80015C3.21925 5.75667 3.18471 5.70504 3.16114 5.6482C3.13758 5.59136 3.12545 5.53043 3.12545 5.4689C3.12545 5.40737 3.13758 5.34644 3.16114 5.2896C3.18471 5.23277 3.21925 5.18113 3.26279 5.13765Z" fill="white"/>
</svg>
