<svg width="15" height="15" viewBox="0 0 15 15" fill="none" xmlns="http://www.w3.org/2000/svg">
<path d="M5.13734 11.7377C5.0938 11.6942 5.05926 11.6425 5.03569 11.5857C5.01213 11.5289 5 11.4679 5 11.4064C5 11.3449 5.01213 11.2839 5.03569 11.2271C5.05926 11.1703 5.0938 11.1186 5.13734 11.0752L8.71172 7.50016L5.13734 3.92515C5.09384 3.88165 5.05934 3.83005 5.03579 3.77315C5.01225 3.71635 5.00013 3.65545 5.00013 3.59395C5.00013 3.53235 5.01225 3.47145 5.03579 3.41465C5.05934 3.35785 5.09384 3.30615 5.13734 3.26265C5.18084 3.21915 5.23249 3.18465 5.28932 3.16115C5.34616 3.13755 5.40707 3.12545 5.46859 3.12545C5.53011 3.12545 5.59103 3.13755 5.64786 3.16115C5.7047 3.18465 5.75634 3.21915 5.79984 3.26265L9.70609 7.16891C9.74963 7.21239 9.78418 7.26402 9.80774 7.32086C9.83131 7.3777 9.84344 7.43863 9.84344 7.50016C9.84344 7.56169 9.83131 7.62262 9.80774 7.67946C9.78418 7.73629 9.74963 7.78793 9.70609 7.83141L5.79984 11.7377C5.75636 11.7812 5.70473 11.8157 5.64789 11.8393C5.59105 11.8629 5.53012 11.875 5.46859 11.875C5.40706 11.875 5.34613 11.8629 5.28929 11.8393C5.23246 11.8157 5.18082 11.7812 5.13734 11.7377Z" fill="black"/>
</svg>
