<svg width="24" height="24" viewBox="0 0 24 24" fill="none" xmlns="http://www.w3.org/2000/svg">
<path d="M10.8707 18.21L3.67676 9.987C2.82776 9.018 3.51776 7.5 4.80626 7.5H19.1942C19.4826 7.49975 19.7649 7.58263 20.0074 7.73871C20.2499 7.89479 20.4422 8.11746 20.5614 8.38004C20.6806 8.64262 20.7216 8.934 20.6794 9.21927C20.6372 9.50454 20.5138 9.77161 20.3237 9.9885L13.1297 18.2085C12.9889 18.3696 12.8153 18.4987 12.6205 18.5872C12.4257 18.6757 12.2142 18.7215 12.0002 18.7215C11.7863 18.7215 11.5748 18.6757 11.38 18.5872C11.1851 18.4987 11.0115 18.3696 10.8707 18.2085V18.21Z" fill="white"/>
</svg>
