<svg width="24" height="24" viewBox="0 0 24 24" fill="none" xmlns="http://www.w3.org/2000/svg">
<path d="M10.8705 18.21L3.67653 9.987C2.82753 9.018 3.51753 7.5 4.80603 7.5L19.194 7.5C19.4824 7.49975 19.7647 7.58263 20.0072 7.73871C20.2497 7.89479 20.442 8.11746 20.5612 8.38004C20.6804 8.64262 20.7214 8.934 20.6792 9.21927C20.637 9.50454 20.5136 9.77161 20.3235 9.9885L13.1295 18.2085C12.9887 18.3696 12.8151 18.4987 12.6203 18.5872C12.4255 18.6757 12.214 18.7215 12 18.7215C11.7861 18.7215 11.5746 18.6757 11.3798 18.5872C11.1849 18.4987 11.0113 18.3696 10.8705 18.2085L10.8705 18.21Z" fill="black"/>
</svg>
