<svg width="24" height="24" viewBox="0 0 24 24" fill="none" xmlns="http://www.w3.org/2000/svg">
<path d="M10.8707 5.78979L3.67676 14.0128C2.82776 14.9818 3.51776 16.4998 4.80626 16.4998H19.1942C19.4826 16.5 19.7649 16.4172 20.0074 16.2611C20.2499 16.105 20.4422 15.8823 20.5614 15.6198C20.6806 15.3572 20.7216 15.0658 20.6794 14.7805C20.6372 14.4953 20.5138 14.2282 20.3237 14.0113L13.1297 5.79129C12.9889 5.63018 12.8153 5.50105 12.6205 5.41257C12.4257 5.32409 12.2142 5.27832 12.0002 5.27832C11.7863 5.27832 11.5748 5.32409 11.38 5.41257C11.1851 5.50105 11.0115 5.63017 10.8707 5.79129V5.78979Z" fill="white"/>
</svg>
