<svg width="25" height="24" viewBox="0 0 25 24" fill="none" xmlns="http://www.w3.org/2000/svg">
<path d="M6.4558 13.1295L14.6788 20.3235C15.6478 21.1725 17.1658 20.4825 17.1658 19.194V4.80597C17.1661 4.51761 17.0832 4.23528 16.9271 3.99281C16.771 3.75033 16.5483 3.55798 16.2858 3.4388C16.0232 3.31962 15.7318 3.27865 15.4465 3.3208C15.1613 3.36295 14.8942 3.48644 14.6773 3.67647L6.45731 10.8705C6.29619 11.0113 6.16706 11.1849 6.07859 11.3797C5.99011 11.5745 5.94434 11.786 5.94434 12C5.94434 12.2139 5.99011 12.4254 6.07859 12.6202C6.16706 12.8151 6.29619 12.9887 6.45731 13.1295H6.4558Z" fill="black"/>
</svg>
