<svg width="25" height="24" viewBox="0 0 25 24" fill="none" xmlns="http://www.w3.org/2000/svg">
<path d="M18.876 13.1295L10.653 20.3235C9.68402 21.1725 8.16602 20.4825 8.16602 19.194V4.80597C8.16577 4.51761 8.24865 4.23528 8.40473 3.99281C8.56081 3.75033 8.78347 3.55798 9.04606 3.4388C9.30864 3.31962 9.60001 3.27865 9.88528 3.3208C10.1706 3.36295 10.4376 3.48644 10.6545 3.67647L18.8745 10.8705C19.0356 11.0113 19.1648 11.1849 19.2532 11.3797C19.3417 11.5745 19.3875 11.786 19.3875 12C19.3875 12.2139 19.3417 12.4254 19.2532 12.6202C19.1648 12.8151 19.0356 12.9887 18.8745 13.1295H18.876Z" fill="black"/>
</svg>
