<svg width="24" height="24" viewBox="0 0 24 24" fill="none" xmlns="http://www.w3.org/2000/svg">
<g clip-path="url(#clip0_252_956)">
<path d="M0 10.5C0 4.701 4.701 0 10.5 0C16.299 0 21 4.701 21 10.5C21 13.13 20.033 15.533 18.436 17.375L22.78 21.72C22.8787 21.8117 22.9509 21.9283 22.9889 22.0575C23.0269 22.1868 23.0294 22.3239 22.996 22.4544C22.9626 22.5849 22.8947 22.704 22.7993 22.7992C22.7039 22.8943 22.5846 22.962 22.454 22.995C22.3236 23.0284 22.1867 23.0261 22.0575 22.9883C21.9283 22.9504 21.8117 22.8785 21.72 22.78L17.375 18.436C15.4683 20.093 13.0261 21.0038 10.5 21C4.701 21 0 16.299 0 10.5ZM10.5 1.5C8.11305 1.5 5.82387 2.44821 4.13604 4.13604C2.44821 5.82387 1.5 8.11305 1.5 10.5C1.5 12.8869 2.44821 15.1761 4.13604 16.864C5.82387 18.5518 8.11305 19.5 10.5 19.5C12.8869 19.5 15.1761 18.5518 16.864 16.864C18.5518 15.1761 19.5 12.8869 19.5 10.5C19.5 8.11305 18.5518 5.82387 16.864 4.13604C15.1761 2.44821 12.8869 1.5 10.5 1.5Z" fill="black"/>
<path d="M11 5.28762C11 5.08871 10.921 4.89794 10.7803 4.75729C10.6397 4.61664 10.4489 4.53762 10.25 4.53762C10.0511 4.53762 9.86032 4.61664 9.71967 4.75729C9.57902 4.89794 9.5 5.08871 9.5 5.28762V10.7876C9.5 11.0576 9.644 11.3056 9.878 11.4386L13.378 13.4386C13.5503 13.5317 13.7522 13.5538 13.9405 13.5C14.1288 13.4462 14.2886 13.321 14.3858 13.1509C14.4829 12.9809 14.5097 12.7796 14.4604 12.5901C14.4112 12.4005 14.2897 12.2378 14.122 12.1366L11 10.3526V5.28762Z" fill="black"/>
</g>
<defs>
<clipPath id="clip0_252_956">
<rect width="24" height="24" fill="white"/>
</clipPath>
</defs>
</svg>
