<svg width="24" height="24" viewBox="0 0 24 24" fill="none" xmlns="http://www.w3.org/2000/svg">
<path d="M4 20.25V18C4 17.8011 4.07902 17.6103 4.21967 17.4697C4.36032 17.329 4.55109 17.25 4.75 17.25C4.94891 17.25 5.13968 17.329 5.28033 17.4697C5.42098 17.6103 5.5 17.8011 5.5 18V20.25C5.5 20.388 5.612 20.5 5.75 20.5H18.25C18.3163 20.5 18.3799 20.4737 18.4268 20.4268C18.4737 20.3799 18.5 20.3163 18.5 20.25V18C18.5 17.8011 18.579 17.6103 18.7197 17.4697C18.8603 17.329 19.0511 17.25 19.25 17.25C19.4489 17.25 19.6397 17.329 19.7803 17.4697C19.921 17.6103 20 17.8011 20 18V20.25C20 20.7141 19.8156 21.1592 19.4874 21.4874C19.1592 21.8156 18.7141 22 18.25 22H5.75C5.28587 22 4.84075 21.8156 4.51256 21.4874C4.18437 21.1592 4 20.7141 4 20.25Z" fill="black"/>
<g clip-path="url(#clip0_299_991)">
<path d="M18.7802 10.4702C18.8499 10.5398 18.9052 10.6224 18.9429 10.7134C18.9806 10.8043 19 10.9018 19 11.0002C19 11.0987 18.9806 11.1962 18.9429 11.2871C18.9052 11.3781 18.8499 11.4607 18.7802 11.5302L12.5302 17.7802C12.4607 17.8499 12.3781 17.9052 12.2871 17.9429C12.1962 17.9806 12.0987 18 12.0002 18C11.9018 18 11.8043 17.9806 11.7134 17.9429C11.6224 17.9052 11.5398 17.8499 11.4702 17.7802L5.22025 11.5302C5.15065 11.4606 5.09543 11.378 5.05777 11.2871C5.0201 11.1961 5.00071 11.0987 5.00071 11.0002C5.00071 10.9018 5.0201 10.8043 5.05777 10.7134C5.09543 10.6225 5.15065 10.5398 5.22025 10.4702C5.28985 10.4006 5.37248 10.3454 5.46341 10.3078C5.55435 10.2701 5.65182 10.2507 5.75025 10.2507C5.84868 10.2507 5.94615 10.2701 6.03708 10.3078C6.12802 10.3454 6.21065 10.4006 6.28025 10.4702L11.2502 15.4392L11.2502 3.25025C11.2502 3.05133 11.3293 2.86057 11.4699 2.71991C11.6106 2.57926 11.8013 2.50025 12.0002 2.50025C12.1992 2.50025 12.3899 2.57926 12.5306 2.71991C12.6712 2.86057 12.7502 3.05133 12.7502 3.25025L12.7502 15.4392L17.7202 10.4702C17.7898 10.4006 17.8724 10.3453 17.9634 10.3076C18.0543 10.2699 18.1518 10.2505 18.2502 10.2505C18.3487 10.2505 18.4462 10.2699 18.5371 10.3076C18.6281 10.3453 18.7107 10.4006 18.7802 10.4702Z" fill="black"/>
</g>
<defs>
<clipPath id="clip0_299_991">
<rect width="14" height="16" fill="white" transform="translate(19 18) rotate(-180)"/>
</clipPath>
</defs>
</svg>
