<svg width="55" height="55" viewBox="0 0 55 55" fill="none" xmlns="http://www.w3.org/2000/svg">
<path d="M1.71875 37.8125C1.72017 39.1796 2.26387 40.4903 3.23055 41.4569C4.19723 42.4236 5.50791 42.9673 6.875 42.9688H21.2566L20.827 46.4062H15.4688C15.0129 46.4062 14.5757 46.5873 14.2534 46.9097C13.9311 47.232 13.75 47.6692 13.75 48.125C13.75 48.5808 13.9311 49.018 14.2534 49.3403C14.5757 49.6627 15.0129 49.8438 15.4688 49.8438H39.5312C39.9871 49.8438 40.4243 49.6627 40.7466 49.3403C41.0689 49.018 41.25 48.5808 41.25 48.125C41.25 47.6692 41.0689 47.232 40.7466 46.9097C40.4243 46.5873 39.9871 46.4062 39.5312 46.4062H34.173L33.7434 42.9688H48.125C49.4921 42.9673 50.8028 42.4236 51.7694 41.4569C52.7361 40.4903 53.2798 39.1796 53.2812 37.8125V32.6562H1.71875V37.8125ZM27.5 36.0938C27.8399 36.0938 28.1722 36.1946 28.4549 36.3834C28.7375 36.5723 28.9578 36.8407 29.0879 37.1548C29.218 37.4688 29.252 37.8144 29.1857 38.1478C29.1194 38.4812 28.9557 38.7875 28.7153 39.0278C28.475 39.2682 28.1687 39.4319 27.8353 39.4982C27.5019 39.5645 27.1563 39.5305 26.8423 39.4004C26.5282 39.2703 26.2598 39.05 26.0709 38.7674C25.8821 38.4847 25.7812 38.1524 25.7812 37.8125C25.7812 37.3567 25.9623 36.9195 26.2847 36.5972C26.607 36.2748 27.0442 36.0938 27.5 36.0938Z" fill="black"/>
<path d="M53.2812 10.3125C53.2798 8.94541 52.7361 7.63473 51.7694 6.66805C50.8028 5.70137 49.4921 5.15767 48.125 5.15625H6.875C5.50791 5.15767 4.19723 5.70137 3.23055 6.66805C2.26387 7.63473 1.72017 8.94541 1.71875 10.3125V30.9375H53.2812V10.3125Z" fill="black"/>
<path fill-rule="evenodd" clip-rule="evenodd" d="M26.1887 11.9699C26.1431 11.186 26.8281 10.625 27.5004 10.625C28.1727 10.625 28.8578 11.186 28.8122 11.9699L28.4847 20.8123C28.4807 21.0678 28.3775 21.312 28.1965 21.4929C28.0119 21.6775 27.7615 21.7812 27.5004 21.7812C27.2394 21.7812 26.989 21.6775 26.8044 21.4929C26.6234 21.312 26.5202 21.0678 26.5162 20.8123L26.1887 11.9699Z" fill="white"/>
<path fill-rule="evenodd" clip-rule="evenodd" d="M26.1879 25.0625C26.1879 24.3376 26.7756 23.75 27.5004 23.75C28.2253 23.75 28.8129 24.3376 28.8129 25.0625C28.8129 25.7874 28.2253 26.375 27.5004 26.375C26.7756 26.375 26.1879 25.7874 26.1879 25.0625Z" fill="white"/>
</svg>
