<svg width="24" height="24" viewBox="0 0 24 24" fill="none" xmlns="http://www.w3.org/2000/svg">
<path d="M20.25 21.0001C20.1515 21.0003 20.0539 20.9809 19.9629 20.9432C19.8719 20.9054 19.7893 20.8501 19.7198 20.7803L3.21982 4.28025C3.0851 4.13845 3.01111 3.94964 3.01361 3.75407C3.01612 3.5585 3.09492 3.37164 3.23322 3.23334C3.37152 3.09504 3.55838 3.01624 3.75395 3.01373C3.94952 3.01123 4.13833 3.08522 4.28013 3.21994L20.7801 19.7199C20.8849 19.8248 20.9563 19.9584 20.9852 20.1039C21.0141 20.2493 20.9993 20.4001 20.9426 20.5371C20.8858 20.6741 20.7897 20.7912 20.6665 20.8736C20.5432 20.956 20.3983 21 20.25 21.0001Z" fill="black"/>
<path d="M11.625 14.8056L9.1973 12.3779C9.18339 12.3641 9.16551 12.355 9.14616 12.3519C9.12682 12.3488 9.10699 12.3518 9.08946 12.3606C9.07193 12.3693 9.05757 12.3833 9.04841 12.4006C9.03925 12.418 9.03575 12.4377 9.03839 12.4571C9.1364 13.087 9.43213 13.6693 9.88285 14.12C10.3336 14.5707 10.9159 14.8665 11.5457 14.9645C11.5651 14.9671 11.5849 14.9636 11.6022 14.9544C11.6195 14.9453 11.6335 14.9309 11.6423 14.9134C11.651 14.8959 11.6541 14.876 11.651 14.8567C11.6478 14.8374 11.6388 14.8195 11.625 14.8056Z" fill="black"/>
<path d="M12.375 9.19464L14.8064 11.6251C14.8202 11.6391 14.8382 11.6484 14.8576 11.6516C14.877 11.6548 14.897 11.6518 14.9146 11.643C14.9323 11.6343 14.9467 11.6202 14.9559 11.6027C14.9651 11.5853 14.9685 11.5654 14.9657 11.5459C14.868 10.9152 14.572 10.332 14.1207 9.88072C13.6695 9.42944 13.0863 9.13349 12.4556 9.03573C12.436 9.03272 12.4161 9.03596 12.3985 9.04498C12.3809 9.054 12.3666 9.06835 12.3577 9.08597C12.3487 9.10359 12.3456 9.12359 12.3487 9.14311C12.3518 9.16262 12.361 9.18066 12.375 9.19464Z" fill="black"/>
<path d="M23.0157 12.8138C23.1708 12.5703 23.2529 12.2873 23.2521 11.9985C23.2512 11.7097 23.1676 11.4272 23.011 11.1845C21.7707 9.26635 20.1614 7.63697 18.3577 6.47213C16.3594 5.18213 14.1563 4.5001 11.985 4.5001C10.8404 4.50167 9.70354 4.6883 8.61847 5.05276C8.5881 5.06286 8.56082 5.08056 8.53923 5.10419C8.51764 5.12781 8.50246 5.15657 8.49513 5.18773C8.4878 5.21888 8.48856 5.25139 8.49735 5.28217C8.50614 5.31294 8.52266 5.34095 8.54534 5.36354L10.7597 7.57791C10.7827 7.60096 10.8113 7.61762 10.8427 7.62625C10.8741 7.63488 10.9072 7.63518 10.9388 7.62713C11.6894 7.44422 12.4744 7.45762 13.2183 7.66605C13.9622 7.87448 14.6399 8.27092 15.1862 8.8172C15.7325 9.36348 16.1289 10.0412 16.3374 10.7851C16.5458 11.529 16.5592 12.314 16.3763 13.0646C16.3683 13.0961 16.3687 13.1291 16.3773 13.1604C16.3859 13.1917 16.4025 13.2203 16.4255 13.2432L19.6107 16.4307C19.6438 16.4639 19.6882 16.4835 19.735 16.4856C19.7819 16.4877 19.8278 16.4721 19.8638 16.442C21.0898 15.3969 22.1523 14.174 23.0157 12.8138Z" fill="black"/>
<path d="M12 16.5001C11.3188 16.5001 10.6465 16.3455 10.0337 16.0479C9.42094 15.7503 8.88375 15.3174 8.46263 14.782C8.04151 14.2465 7.74745 13.6224 7.60262 12.9568C7.45779 12.2912 7.46598 11.6013 7.62656 10.9393C7.63452 10.9078 7.63417 10.8748 7.62555 10.8435C7.61692 10.8122 7.60031 10.7837 7.57734 10.7607L4.44422 7.62618C4.41099 7.59292 4.36649 7.57336 4.31952 7.57136C4.27255 7.56936 4.22655 7.58508 4.19062 7.6154C3.04734 8.59087 1.9875 9.77775 1.01859 11.1648C0.84899 11.4082 0.755584 11.6966 0.750243 11.9932C0.744901 12.2898 0.827865 12.5813 0.988591 12.8307C2.22656 14.7681 3.81937 16.3998 5.59547 17.5487C7.59656 18.8438 9.74625 19.5001 11.985 19.5001C13.1412 19.497 14.2899 19.3143 15.39 18.9587C15.4206 18.9489 15.4482 18.9314 15.4702 18.9078C15.4921 18.8843 15.5076 18.8555 15.5152 18.8243C15.5227 18.793 15.5222 18.7603 15.5134 18.7293C15.5047 18.6984 15.4882 18.6702 15.4655 18.6474L13.2403 16.4227C13.2174 16.3998 13.1888 16.3832 13.1575 16.3745C13.1262 16.3659 13.0932 16.3656 13.0617 16.3735C12.7141 16.4578 12.3577 16.5002 12 16.5001Z" fill="black"/>
</svg>
