<svg width="24" height="24" viewBox="0 0 24 24" fill="none" xmlns="http://www.w3.org/2000/svg">
<path d="M12.7495 9.75C12.7495 9.55109 12.6705 9.36032 12.5298 9.21967C12.3892 9.07902 12.1984 9 11.9995 9C11.8006 9 11.6098 9.07902 11.4692 9.21967C11.3285 9.36032 11.2495 9.55109 11.2495 9.75V15.4395L9.53048 13.719C9.46075 13.6493 9.37797 13.594 9.28686 13.5562C9.19575 13.5185 9.0981 13.4991 8.99948 13.4991C8.90087 13.4991 8.80322 13.5185 8.71211 13.5562C8.621 13.594 8.53821 13.6493 8.46848 13.719C8.39875 13.7887 8.34344 13.8715 8.3057 13.9626C8.26796 14.0537 8.24854 14.1514 8.24854 14.25C8.24854 14.3486 8.26796 14.4463 8.3057 14.5374C8.34344 14.6285 8.39875 14.7113 8.46848 14.781L11.4685 17.781C11.5382 17.8508 11.6209 17.9063 11.712 17.9441C11.8032 17.9819 11.9008 18.0013 11.9995 18.0013C12.0981 18.0013 12.1958 17.9819 12.2869 17.9441C12.3781 17.9063 12.4608 17.8508 12.5305 17.781L15.5305 14.781C15.6002 14.7113 15.6555 14.6285 15.6933 14.5374C15.731 14.4463 15.7504 14.3486 15.7504 14.25C15.7504 14.1514 15.731 14.0537 15.6933 13.9626C15.6555 13.8715 15.6002 13.7887 15.5305 13.719C15.4608 13.6493 15.378 13.594 15.2869 13.5562C15.1957 13.5185 15.0981 13.4991 14.9995 13.4991C14.9009 13.4991 14.8032 13.5185 14.7121 13.5562C14.621 13.594 14.5382 13.6493 14.4685 13.719L12.7495 15.4395V9.75Z" fill="black"/>
<path d="M21 21V6.75L14.25 0H6C5.20435 0 4.44129 0.316071 3.87868 0.87868C3.31607 1.44129 3 2.20435 3 3V21C3 21.7956 3.31607 22.5587 3.87868 23.1213C4.44129 23.6839 5.20435 24 6 24H18C18.7956 24 19.5587 23.6839 20.1213 23.1213C20.6839 22.5587 21 21.7956 21 21ZM14.25 4.5C14.25 5.09674 14.4871 5.66903 14.909 6.09099C15.331 6.51295 15.9033 6.75 16.5 6.75H19.5V21C19.5 21.3978 19.342 21.7794 19.0607 22.0607C18.7794 22.342 18.3978 22.5 18 22.5H6C5.60218 22.5 5.22064 22.342 4.93934 22.0607C4.65804 21.7794 4.5 21.3978 4.5 21V3C4.5 2.60218 4.65804 2.22064 4.93934 1.93934C5.22064 1.65804 5.60218 1.5 6 1.5H14.25V4.5Z" fill="black"/>
</svg>
