<svg width="24" height="24" viewBox="0 0 24 24" fill="none" xmlns="http://www.w3.org/2000/svg">
<path d="M13.875 2.625H6.375C5.87772 2.625 5.40081 2.82254 5.04917 3.17417C4.69754 3.52581 4.5 4.00272 4.5 4.5V19.5C4.5 19.9973 4.69754 20.4742 5.04917 20.8258C5.40081 21.1775 5.87772 21.375 6.375 21.375H17.625C18.1223 21.375 18.5992 21.1775 18.9508 20.8258C19.3025 20.4742 19.5 19.9973 19.5 19.5V8.25L13.875 2.625Z" fill="#D2DDE8" stroke="#262262" stroke-width="1.875" stroke-linecap="round" stroke-linejoin="round"/>
<path d="M13.875 2.625V8.25H19.5" stroke="#262262" stroke-width="1.875" stroke-linecap="round" stroke-linejoin="round"/>
<path d="M15.75 12.9375H8.25" stroke="#262262" stroke-width="1.875" stroke-linecap="round" stroke-linejoin="round"/>
<path d="M15.75 16.6875H8.25" stroke="#262262" stroke-width="1.875" stroke-linecap="round" stroke-linejoin="round"/>
<path d="M10.125 9.1875H9.1875H8.25" stroke="#262262" stroke-width="1.875" stroke-linecap="round" stroke-linejoin="round"/>
</svg>
