<svg width="24" height="24" viewBox="0 0 24 24" fill="none" xmlns="http://www.w3.org/2000/svg">
<path d="M16.0005 12C16.0005 13.0609 15.5791 14.0783 14.8289 14.8284C14.0788 15.5786 13.0614 16 12.0005 16C10.9396 16 9.92221 15.5786 9.17206 14.8284C8.42192 14.0783 8.00049 13.0609 8.00049 12C8.00049 10.9391 8.42192 9.92172 9.17206 9.17157C9.92221 8.42143 10.9396 8 12.0005 8C13.0614 8 14.0788 8.42143 14.8289 9.17157C15.5791 9.92172 16.0005 10.9391 16.0005 12ZM14.5005 12C14.5005 11.337 14.2371 10.7011 13.7683 10.2322C13.2994 9.76339 12.6635 9.5 12.0005 9.5C11.3374 9.5 10.7016 9.76339 10.2327 10.2322C9.76388 10.7011 9.50049 11.337 9.50049 12C9.50049 12.663 9.76388 13.2989 10.2327 13.7678C10.7016 14.2366 11.3374 14.5 12.0005 14.5C12.6635 14.5 13.2994 14.2366 13.7683 13.7678C14.2371 13.2989 14.5005 12.663 14.5005 12Z" fill="white"/>
<path d="M12.0005 1C12.2665 1 12.5325 1.009 12.7975 1.028C13.5605 1.083 14.1425 1.645 14.3095 2.332L14.6615 3.782C14.6805 3.86 14.7515 3.953 14.8865 4.003C15.1335 4.092 15.3765 4.193 15.6145 4.305C15.7445 4.366 15.8605 4.349 15.9295 4.307L17.2045 3.531C17.8075 3.163 18.6155 3.178 19.1945 3.678C19.5965 4.027 19.9745 4.404 20.3225 4.807C20.8235 5.385 20.8375 6.193 20.4695 6.797L19.6935 8.071C19.6515 8.14 19.6355 8.256 19.6955 8.386C19.8075 8.624 19.9085 8.867 19.9985 9.114C20.0465 9.249 20.1405 9.319 20.2185 9.339L21.6685 9.691C22.3555 9.858 22.9175 10.44 22.9715 11.203C23.0095 11.734 23.0095 12.266 22.9715 12.797C22.9175 13.56 22.3555 14.142 21.6685 14.309L20.2185 14.661C20.1405 14.68 20.0475 14.751 19.9975 14.886C19.9085 15.134 19.8075 15.377 19.6955 15.614C19.6345 15.744 19.6515 15.86 19.6935 15.929L20.4695 17.204C20.8375 17.807 20.8225 18.615 20.3225 19.194C19.9735 19.596 19.5965 19.974 19.1935 20.322C18.6155 20.823 17.8075 20.837 17.2035 20.469L15.9295 19.693C15.8605 19.651 15.7445 19.635 15.6155 19.695C15.3773 19.8071 15.134 19.9082 14.8865 19.998C14.7515 20.046 14.6815 20.14 14.6615 20.218L14.3095 21.668C14.1425 22.355 13.5605 22.917 12.7975 22.971C12.2665 23.009 11.7345 23.009 11.2035 22.971C10.4405 22.917 9.8585 22.355 9.6915 21.668L9.3395 20.218C9.3205 20.14 9.2495 20.047 9.1145 19.997C8.8671 19.9082 8.62415 19.8074 8.3865 19.695C8.2565 19.634 8.1405 19.651 8.0715 19.693L6.7965 20.469C6.1935 20.837 5.3855 20.822 4.8065 20.322C4.4045 19.973 4.0265 19.596 3.6785 19.193C3.1775 18.615 3.1635 17.807 3.5315 17.203L4.3075 15.929C4.3495 15.86 4.3655 15.744 4.3055 15.615C4.1934 15.3768 4.0923 15.1335 4.0025 14.886C3.9545 14.751 3.8605 14.681 3.7825 14.661L2.3325 14.309C1.6455 14.142 1.0835 13.56 1.0285 12.797C0.9905 12.2663 0.9905 11.7337 1.0285 11.203C1.0835 10.44 1.6455 9.858 2.3325 9.691L3.7825 9.339C3.8605 9.32 3.9535 9.249 4.0035 9.114C4.0925 8.866 4.1935 8.623 4.3055 8.386C4.3665 8.256 4.3495 8.14 4.3075 8.071L3.5315 6.796C3.1635 6.193 3.1785 5.385 3.6785 4.806C4.0275 4.404 4.4045 4.026 4.8075 3.678C5.3855 3.177 6.1935 3.163 6.7975 3.531L8.0715 4.307C8.1405 4.349 8.2565 4.365 8.3865 4.305C8.6245 4.193 8.8675 4.092 9.1145 4.002C9.2495 3.954 9.3195 3.86 9.3395 3.782L9.6915 2.332C9.8585 1.645 10.4405 1.083 11.2035 1.028C11.4665 1.01 11.7325 1 12.0005 1ZM11.3105 2.525C11.2555 2.529 11.1755 2.575 11.1495 2.686L10.7965 4.136C10.7217 4.42906 10.5756 4.69905 10.3711 4.92187C10.1666 5.1447 9.91008 5.31343 9.6245 5.413C9.42083 5.48686 9.22062 5.56995 9.0245 5.662C8.75185 5.79388 8.45078 5.85615 8.14819 5.84323C7.8456 5.83032 7.55092 5.74263 7.2905 5.588L6.0165 4.812C5.9185 4.752 5.8305 4.776 5.7885 4.812C5.44057 5.11393 5.11443 5.44007 4.8125 5.788C4.7765 5.83 4.7525 5.919 4.8125 6.016L5.5885 7.29C5.9025 7.819 5.9305 8.47 5.6625 9.024C5.57045 9.22012 5.48736 9.42033 5.4135 9.624C5.31405 9.90993 5.14526 10.1667 4.92223 10.3715C4.6992 10.5762 4.42889 10.7224 4.1355 10.797L2.6855 11.148C2.5755 11.175 2.5295 11.255 2.5255 11.31C2.4925 11.7694 2.4925 12.2306 2.5255 12.69C2.5295 12.745 2.5755 12.825 2.6865 12.851L4.1365 13.204C4.42956 13.2788 4.69955 13.4249 4.92237 13.6294C5.1452 13.8339 5.31393 14.0904 5.4135 14.376C5.4875 14.58 5.5705 14.78 5.6625 14.976C5.9305 15.529 5.9025 16.18 5.5885 16.709L4.8125 17.984C4.7525 18.082 4.7765 18.17 4.8125 18.212C5.1135 18.56 5.4405 18.887 5.7885 19.188C5.8305 19.224 5.9195 19.248 6.0165 19.188L7.2905 18.412C7.55074 18.257 7.8454 18.1689 8.14804 18.1559C8.45069 18.1428 8.75184 18.205 9.0245 18.337C9.2205 18.43 9.4205 18.513 9.6245 18.587C9.91043 18.6864 10.1672 18.8552 10.372 19.0783C10.5767 19.3013 10.7229 19.5716 10.7975 19.865L11.1485 21.315C11.1755 21.425 11.2555 21.471 11.3105 21.475C11.7699 21.508 12.2311 21.508 12.6905 21.475C12.7455 21.471 12.8255 21.425 12.8515 21.314L13.2045 19.864C13.2793 19.5708 13.4254 19.3007 13.6299 19.0777C13.8344 18.8548 14.0909 18.6858 14.3765 18.586C14.5803 18.5129 14.7806 18.4301 14.9765 18.338C15.249 18.2061 15.5499 18.1439 15.8523 18.1568C16.1548 18.1697 16.4493 18.2574 16.7095 18.412L17.9845 19.188C18.0825 19.248 18.1705 19.224 18.2125 19.188C18.5605 18.887 18.8875 18.56 19.1885 18.212C19.2245 18.17 19.2485 18.081 19.1885 17.984L18.4125 16.709C18.258 16.4488 18.1703 16.1543 18.1572 15.8519C18.1441 15.5495 18.206 15.2486 18.3375 14.976C18.4305 14.78 18.5135 14.58 18.5875 14.376C18.687 14.0901 18.8557 13.8333 19.0788 13.6285C19.3018 13.4238 19.5721 13.2776 19.8655 13.203L21.3155 12.852C21.4255 12.825 21.4715 12.745 21.4755 12.69C21.5085 12.2306 21.5085 11.7694 21.4755 11.31C21.4715 11.255 21.4255 11.175 21.3145 11.149L19.8645 10.796C19.2385 10.644 18.7845 10.171 18.5865 9.624C18.5138 9.42004 18.431 9.21979 18.3385 9.024C18.2066 8.75135 18.1444 8.45028 18.1573 8.14769C18.1702 7.8451 18.2579 7.55042 18.4125 7.29L19.1885 6.016C19.2485 5.918 19.2245 5.83 19.1885 5.788C18.8866 5.44007 18.5604 5.11393 18.2125 4.812C18.1705 4.776 18.0815 4.752 17.9845 4.812L16.7095 5.588C16.4493 5.74263 16.1548 5.83032 15.8523 5.84324C15.5499 5.85615 15.249 5.79388 14.9765 5.662C14.7805 5.5696 14.5803 5.48651 14.3765 5.413C14.0907 5.31324 13.8341 5.14434 13.6294 4.92136C13.4248 4.69838 13.2785 4.42824 13.2035 4.135L12.8525 2.685C12.8255 2.575 12.7455 2.529 12.6905 2.525C12.2311 2.492 11.7699 2.492 11.3105 2.525Z" fill="white"/>
</svg>
