<svg width="20" height="20" viewBox="0 0 20 20" fill="none" xmlns="http://www.w3.org/2000/svg">
<g clip-path="url(#clip0_311_1092)">
<circle cx="16.0082" cy="7.53942" r="2.53942" fill="black"/>
<path d="M18.1629 14.216C18.2446 14.2878 18.3705 14.214 18.3463 14.1086L17.3033 9.57951C17.2864 9.50591 17.2021 9.46975 17.1368 9.50802L14.6697 10.9534C14.6043 10.9917 14.5958 11.0822 14.6529 11.1323L18.1629 14.216Z" fill="black"/>
<path d="M13.856 14.2148C13.7743 14.2866 13.6484 14.2128 13.6726 14.1074L14.7299 9.5162C14.7416 9.46543 14.7871 9.42934 14.8396 9.42934L16.0961 9.42928C16.1294 9.42928 16.161 9.444 16.1822 9.46943L17.4126 10.947C17.451 10.9931 17.4455 11.0613 17.4002 11.1011L13.856 14.2148Z" fill="black"/>
<path d="M5.00977 9.81152L8.2179 9.81152" stroke="black"/>
<path d="M11.4268 9.81152L15.4369 9.81152" stroke="black"/>
<path fill-rule="evenodd" clip-rule="evenodd" d="M3.4061 12.2175C4.73496 12.2175 5.81221 11.1402 5.81221 9.81138C5.81221 8.48252 4.73496 7.40527 3.4061 7.40527C2.07725 7.40527 1 8.48252 1 9.81138C1 11.1402 2.07725 12.2175 3.4061 12.2175ZM3.40602 11.4154C4.29192 11.4154 5.01009 10.6972 5.01009 9.81129C5.01009 8.92539 4.29192 8.20723 3.40602 8.20723C2.52012 8.20723 1.80195 8.92539 1.80195 9.81129C1.80195 10.6972 2.52012 11.4154 3.40602 11.4154Z" fill="black"/>
<path fill-rule="evenodd" clip-rule="evenodd" d="M9.82114 12.2175C11.15 12.2175 12.2272 11.1402 12.2272 9.81138C12.2272 8.48252 11.15 7.40527 9.82114 7.40527C8.49229 7.40527 7.41504 8.48252 7.41504 9.81138C7.41504 11.1402 8.49229 12.2175 9.82114 12.2175ZM9.82106 11.4154C10.707 11.4154 11.4251 10.6972 11.4251 9.81129C11.4251 8.92539 10.707 8.20723 9.82106 8.20723C8.93516 8.20723 8.21699 8.92539 8.21699 9.81129C8.21699 10.6972 8.93516 11.4154 9.82106 11.4154Z" fill="black"/>
</g>
<defs>
<clipPath id="clip0_311_1092">
<rect width="20" height="20" fill="white"/>
</clipPath>
</defs>
</svg>
