<svg width="24" height="24" viewBox="0 0 24 24" fill="none" xmlns="http://www.w3.org/2000/svg">
<path d="M7.07144 9.81324L5.01344 11.8712C4.16946 12.7152 3.69531 13.8599 3.69531 15.0535C3.69531 16.2471 4.16946 17.3918 5.01344 18.2357C5.85743 19.0797 7.00212 19.5539 8.19569 19.5539C9.38927 19.5539 10.534 19.0797 11.3779 18.2357L14.1199 15.4922C14.6289 14.9832 15.0083 14.3596 15.2263 13.6736C15.4444 12.9876 15.4947 12.2593 15.373 11.5498C15.2513 10.8404 14.9612 10.1705 14.5271 9.59635C14.0929 9.02221 13.5274 8.56059 12.8779 8.25024L11.9989 9.12924C11.9097 9.21862 11.8321 9.31891 11.7679 9.42774C12.2697 9.572 12.7252 9.84471 13.0893 10.2189C13.4534 10.5931 13.7135 11.0559 13.8439 11.5615C13.9744 12.067 13.9706 12.5979 13.833 13.1015C13.6955 13.6052 13.4288 14.0642 13.0594 14.4332L10.3189 17.1752C9.75602 17.7382 8.99254 18.0544 8.19644 18.0544C7.40035 18.0544 6.63687 17.7382 6.07394 17.1752C5.51102 16.6123 5.19477 15.8488 5.19477 15.0527C5.19477 14.2567 5.51102 13.4932 6.07394 12.9302L7.26344 11.7422C7.09514 11.1134 7.0303 10.4629 7.07144 9.81324Z" fill="black"/>
<path d="M9.87785 7.00837C9.36891 7.51739 8.9895 8.14106 8.77147 8.82705C8.55343 9.51304 8.50314 10.2413 8.62481 10.9508C8.74648 11.6602 9.03656 12.3301 9.47071 12.9043C9.90485 13.4784 10.4704 13.94 11.1199 14.2504L12.2824 13.0864C11.7738 12.95 11.3101 12.6821 10.9378 12.3097C10.5656 11.9373 10.2979 11.4734 10.1617 10.9648C10.0255 10.4562 10.0255 9.92064 10.1619 9.41204C10.2982 8.90344 10.566 8.43969 10.9384 8.06737L13.6789 5.32537C14.2418 4.76245 15.0053 4.4462 15.8014 4.4462C16.5974 4.4462 17.3609 4.76245 17.9239 5.32537C18.4868 5.8883 18.803 6.65178 18.803 7.44787C18.803 8.24397 18.4868 9.00745 17.9239 9.57037L16.7344 10.7584C16.9024 11.3884 16.9669 12.0409 16.9264 12.6889L18.9844 10.6309C19.8283 9.78689 20.3025 8.6422 20.3025 7.44862C20.3025 6.25505 19.8283 5.11036 18.9844 4.26637C18.1404 3.42239 16.9957 2.94824 15.8021 2.94824C14.6085 2.94824 13.4638 3.42239 12.6199 4.26637L9.87785 7.00837Z" fill="black"/>
</svg>
