<svg width="24" height="24" viewBox="0 0 24 24" fill="none" xmlns="http://www.w3.org/2000/svg">
<path fill-rule="evenodd" clip-rule="evenodd" d="M8.78035 1.71971C8.9983 1.93768 9.0607 2.2668 8.93765 2.54942C8.45313 3.66226 8.25 5.00443 8.25 6.37502C8.25 11.5525 12.4475 15.75 17.625 15.75C18.9956 15.75 20.3378 15.5469 21.4506 15.0624C21.7332 14.9393 22.0623 15.0017 22.2803 15.2197C22.4983 15.4376 22.5607 15.7667 22.4377 16.0494C20.7558 19.913 16.8223 22.5 12.375 22.5C6.36907 22.5 1.5 17.631 1.5 11.625C1.5 7.17771 4.08704 3.24418 7.95066 1.56235C8.23328 1.43932 8.5624 1.50174 8.78035 1.71971ZM6.9893 3.81353C4.55977 5.51825 3 8.40413 3 11.625C3 16.8025 7.19749 21 12.375 21C15.5959 21 18.4818 19.4402 20.1865 17.0107C19.3445 17.1795 18.4746 17.25 17.625 17.25C11.6191 17.25 6.75 12.381 6.75 6.37502C6.75 5.52539 6.82048 4.6555 6.9893 3.81353Z" fill="black"/>
</svg>
