<svg width="24" height="24" viewBox="0 0 24 24" fill="none" xmlns="http://www.w3.org/2000/svg">
<path fill-rule="evenodd" clip-rule="evenodd" d="M12.5304 2.46839C12.6002 2.53806 12.6556 2.62082 12.6935 2.71194C12.7313 2.80305 12.7507 2.90074 12.7507 2.99939C12.7507 3.09804 12.7313 3.19572 12.6935 3.28684C12.6556 3.37796 12.6002 3.46072 12.5304 3.53039L4.05989 11.9994L12.5304 20.4684C12.6712 20.6092 12.7503 20.8002 12.7503 20.9994C12.7503 21.1986 12.6712 21.3896 12.5304 21.5304C12.3896 21.6712 12.1986 21.7503 11.9994 21.7503C11.8002 21.7503 11.6092 21.6712 11.4684 21.5304L2.46839 12.5304C2.39854 12.4607 2.34313 12.378 2.30532 12.2868C2.26751 12.1957 2.24805 12.098 2.24805 11.9994C2.24805 11.9007 2.26751 11.8031 2.30532 11.7119C2.34313 11.6208 2.39854 11.5381 2.46839 11.4684L11.4684 2.46839C11.5381 2.39854 11.6208 2.34313 11.7119 2.30532C11.8031 2.26751 11.9007 2.24805 11.9994 2.24805C12.098 2.24805 12.1957 2.26751 12.2868 2.30532C12.378 2.34313 12.4607 2.39854 12.5304 2.46839Z" fill="black"/>
<path fill-rule="evenodd" clip-rule="evenodd" d="M18.5304 2.46839C18.6002 2.53806 18.6556 2.62082 18.6935 2.71194C18.7313 2.80305 18.7507 2.90074 18.7507 2.99939C18.7507 3.09804 18.7313 3.19572 18.6935 3.28684C18.6556 3.37796 18.6002 3.46072 18.5304 3.53039L10.0599 11.9994L18.5304 20.4684C18.6001 20.5381 18.6554 20.6209 18.6932 20.712C18.7309 20.8031 18.7503 20.9008 18.7503 20.9994C18.7503 21.098 18.7309 21.1957 18.6932 21.2868C18.6554 21.3779 18.6001 21.4607 18.5304 21.5304C18.4607 21.6001 18.3779 21.6554 18.2868 21.6932C18.1957 21.7309 18.098 21.7503 17.9994 21.7503C17.9008 21.7503 17.8031 21.7309 17.712 21.6932C17.6209 21.6554 17.5381 21.6001 17.4684 21.5304L8.46839 12.5304C8.39854 12.4607 8.34313 12.378 8.30532 12.2868C8.26751 12.1957 8.24805 12.098 8.24805 11.9994C8.24805 11.9007 8.26751 11.8031 8.30532 11.7119C8.34313 11.6208 8.39854 11.5381 8.46839 11.4684L17.4684 2.46839C17.5381 2.39854 17.6208 2.34313 17.7119 2.30532C17.8031 2.26751 17.9007 2.24805 17.9994 2.24805C18.098 2.24805 18.1957 2.26751 18.2868 2.30532C18.378 2.34313 18.4607 2.39854 18.5304 2.46839Z" fill="black"/>
</svg>
