<svg width="24" height="24" viewBox="0 0 24 24" fill="none" xmlns="http://www.w3.org/2000/svg">
<path fill-rule="evenodd" clip-rule="evenodd" d="M5.46839 2.46839C5.53806 2.39854 5.62082 2.34313 5.71194 2.30532C5.80305 2.26751 5.90074 2.24805 5.99939 2.24805C6.09804 2.24805 6.19572 2.26751 6.28684 2.30532C6.37796 2.34313 6.46072 2.39854 6.53039 2.46839L15.5304 11.4684C15.6002 11.5381 15.6556 11.6208 15.6935 11.7119C15.7313 11.8031 15.7507 11.9007 15.7507 11.9994C15.7507 12.098 15.7313 12.1957 15.6935 12.2868C15.6556 12.378 15.6002 12.4607 15.5304 12.5304L6.53039 21.5304C6.38956 21.6712 6.19855 21.7503 5.99939 21.7503C5.80022 21.7503 5.60922 21.6712 5.46839 21.5304C5.32756 21.3896 5.24844 21.1986 5.24844 20.9994C5.24844 20.8002 5.32756 20.6092 5.46839 20.4684L13.9389 11.9994L5.46839 3.53039C5.39854 3.46072 5.34313 3.37796 5.30532 3.28684C5.26751 3.19572 5.24805 3.09804 5.24805 2.99939C5.24805 2.90074 5.26751 2.80305 5.30532 2.71194C5.34313 2.62082 5.39854 2.53806 5.46839 2.46839Z" fill="white"/>
<path fill-rule="evenodd" clip-rule="evenodd" d="M11.4684 2.46839C11.5381 2.39854 11.6208 2.34313 11.7119 2.30532C11.8031 2.26751 11.9007 2.24805 11.9994 2.24805C12.098 2.24805 12.1957 2.26751 12.2868 2.30532C12.378 2.34313 12.4607 2.39854 12.5304 2.46839L21.5304 11.4684C21.6002 11.5381 21.6556 11.6208 21.6935 11.7119C21.7313 11.8031 21.7507 11.9007 21.7507 11.9994C21.7507 12.098 21.7313 12.1957 21.6935 12.2868C21.6556 12.378 21.6002 12.4607 21.5304 12.5304L12.5304 21.5304C12.3896 21.6712 12.1986 21.7503 11.9994 21.7503C11.8002 21.7503 11.6092 21.6712 11.4684 21.5304C11.3276 21.3896 11.2484 21.1986 11.2484 20.9994C11.2484 20.8002 11.3276 20.6092 11.4684 20.4684L19.9389 11.9994L11.4684 3.53039C11.3985 3.46072 11.3431 3.37796 11.3053 3.28684C11.2675 3.19572 11.248 3.09804 11.248 2.99939C11.248 2.90074 11.2675 2.80305 11.3053 2.71194C11.3431 2.62082 11.3985 2.53806 11.4684 2.46839Z" fill="white"/>
</svg>
