<svg width="24" height="24" viewBox="0 0 24 24" fill="none" xmlns="http://www.w3.org/2000/svg">
<path fill-rule="evenodd" clip-rule="evenodd" d="M6.96839 2.46839C7.03806 2.39854 7.12082 2.34313 7.21194 2.30532C7.30305 2.26751 7.40074 2.24805 7.49939 2.24805C7.59804 2.24805 7.69572 2.26751 7.78684 2.30532C7.87796 2.34313 7.96072 2.39854 8.03039 2.46839L17.0304 11.4684C17.1002 11.5381 17.1556 11.6208 17.1935 11.7119C17.2313 11.8031 17.2507 11.9007 17.2507 11.9994C17.2507 12.098 17.2313 12.1957 17.1935 12.2868C17.1556 12.378 17.1002 12.4607 17.0304 12.5304L8.03039 21.5304C7.88956 21.6712 7.69855 21.7503 7.49939 21.7503C7.30022 21.7503 7.10922 21.6712 6.96839 21.5304C6.82756 21.3896 6.74844 21.1986 6.74844 20.9994C6.74844 20.8002 6.82756 20.6092 6.96839 20.4684L15.4389 11.9994L6.96839 3.53039C6.89854 3.46072 6.84313 3.37796 6.80532 3.28684C6.76751 3.19572 6.74805 3.09804 6.74805 2.99939C6.74805 2.90074 6.76751 2.80305 6.80532 2.71194C6.84313 2.62082 6.89854 2.53806 6.96839 2.46839Z" fill="black"/>
</svg>
