<svg width="24" height="24" viewBox="0 0 24 24" fill="none" xmlns="http://www.w3.org/2000/svg">
<path fill-rule="evenodd" clip-rule="evenodd" d="M17.0304 2.46839C17.1002 2.53806 17.1556 2.62082 17.1935 2.71194C17.2313 2.80305 17.2507 2.90074 17.2507 2.99939C17.2507 3.09804 17.2313 3.19572 17.1935 3.28684C17.1556 3.37796 17.1002 3.46072 17.0304 3.53039L8.55989 11.9994L17.0304 20.4684C17.1712 20.6092 17.2503 20.8002 17.2503 20.9994C17.2503 21.1986 17.1712 21.3896 17.0304 21.5304C16.8896 21.6712 16.6986 21.7503 16.4994 21.7503C16.3002 21.7503 16.1092 21.6712 15.9684 21.5304L6.96839 12.5304C6.89854 12.4607 6.84313 12.378 6.80532 12.2868C6.76751 12.1957 6.74805 12.098 6.74805 11.9994C6.74805 11.9007 6.76751 11.8031 6.80532 11.7119C6.84313 11.6208 6.89854 11.5381 6.96839 11.4684L15.9684 2.46839C16.0381 2.39854 16.1208 2.34313 16.2119 2.30532C16.3031 2.26751 16.4007 2.24805 16.4994 2.24805C16.598 2.24805 16.6957 2.26751 16.7868 2.30532C16.878 2.34313 16.9607 2.39854 17.0304 2.46839Z" fill="white"/>
</svg>
