<svg width="24" height="24" viewBox="0 0 24 24" fill="none" xmlns="http://www.w3.org/2000/svg">
<path d="M22.4561 5.21984L22.419 4.6325L21.8397 4.52891C17.785 3.80141 16.0923 3.27547 12.3086 1.56641L11.9997 1.42578L11.6907 1.56641C7.907 3.27547 6.21434 3.80141 2.15965 4.52891L1.58028 4.6325L1.54325 5.21984C1.36278 8.08438 1.74762 10.7534 2.6884 13.153C3.4588 15.1102 4.59894 16.9008 6.04653 18.4269C8.55294 21.0861 11.214 22.2411 11.7217 22.4455L12.0029 22.5584L12.2842 22.4455C12.7918 22.2411 15.4529 21.0861 17.9593 18.4269C19.4046 16.9002 20.5425 15.1097 21.3109 13.153C22.2517 10.7534 22.6365 8.08438 22.4561 5.21984ZM10.6009 15.3448L7.18887 11.9998L8.23887 10.9283L10.5109 13.1544L15.6732 7.19187L16.8076 8.17344L10.6009 15.3448Z" fill="white"/>
</svg>
