<svg width="25" height="24" viewBox="0 0 25 24" fill="none" xmlns="http://www.w3.org/2000/svg">
<g clip-path="url(#clip0_310_1062)">
<path d="M18.666 3H15.666V7.5H18.666V3Z" fill="black"/>
<path d="M2.91602 2.30957e-07C2.31928 2.30957e-07 1.74698 0.237053 1.32503 0.65901C0.903068 1.08097 0.666016 1.65326 0.666016 2.25V21.75C0.666016 22.3467 0.903068 22.919 1.32503 23.341C1.74698 23.7629 2.31928 24 2.91602 24H22.416C23.0128 24 23.585 23.7629 24.007 23.341C24.429 22.919 24.666 22.3467 24.666 21.75V4.371C24.6655 3.77446 24.4281 3.20255 24.006 2.781L21.8865 0.6585C21.6775 0.4496 21.4293 0.283925 21.1563 0.170938C20.8832 0.0579515 20.5905 -0.000133664 20.295 2.30957e-07H2.91602ZM6.66602 9C6.26819 9 5.88666 8.84196 5.60536 8.56066C5.32405 8.27935 5.16602 7.89782 5.16602 7.5V1.5H20.166V7.5C20.166 7.89782 20.008 8.27935 19.7267 8.56066C19.4454 8.84196 19.0638 9 18.666 9H6.66602ZM5.16602 13.5H20.166C20.5638 13.5 20.9454 13.658 21.2267 13.9393C21.508 14.2206 21.666 14.6022 21.666 15V22.5H3.66602V15C3.66602 14.6022 3.82405 14.2206 4.10536 13.9393C4.38666 13.658 4.76819 13.5 5.16602 13.5Z" fill="black"/>
</g>
<defs>
<clipPath id="clip0_310_1062">
<rect width="24" height="24" fill="white" transform="translate(0.666016)"/>
</clipPath>
</defs>
</svg>
