<svg width="16" height="16" viewBox="0 0 16 16" fill="none" xmlns="http://www.w3.org/2000/svg">
<g clip-path="url(#clip0_246_1068)">
<path d="M0 7C0 3.134 3.134 0 7 0C10.866 0 14 3.134 14 7C14 8.75333 13.3553 10.3553 12.2907 11.5833L15.1867 14.48C15.2525 14.5411 15.3006 14.6189 15.3259 14.705C15.3513 14.7912 15.3529 14.8826 15.3307 14.9696C15.3084 15.0566 15.2631 15.136 15.1995 15.1995C15.1359 15.2629 15.0564 15.308 14.9693 15.33C14.8824 15.3523 14.7911 15.3507 14.705 15.3255C14.6189 15.3003 14.5412 15.2523 14.48 15.1867L11.5833 12.2907C10.3122 13.3953 8.68409 14.0025 7 14C3.134 14 0 10.866 0 7ZM7 1C5.4087 1 3.88258 1.63214 2.75736 2.75736C1.63214 3.88258 1 5.4087 1 7C1 8.5913 1.63214 10.1174 2.75736 11.2426C3.88258 12.3679 5.4087 13 7 13C8.5913 13 10.1174 12.3679 11.2426 11.2426C12.3679 10.1174 13 8.5913 13 7C13 5.4087 12.3679 3.88258 11.2426 2.75736C10.1174 1.63214 8.5913 1 7 1Z" fill="black"/>
</g>
<defs>
<clipPath id="clip0_246_1068">
<rect width="16" height="16" fill="white"/>
</clipPath>
</defs>
</svg>
