<svg width="24" height="24" viewBox="0 0 24 24" fill="none" xmlns="http://www.w3.org/2000/svg">
<path d="M22.5 2.25H1.5C1.30109 2.25 1.11032 2.32902 0.96967 2.46967C0.829018 2.61032 0.75 2.80109 0.75 3V18C0.75 18.1989 0.829018 18.3897 0.96967 18.5303C1.11032 18.671 1.30109 18.75 1.5 18.75H9.375V20.25H6V21.75H18V20.25H14.625V18.75H22.5C22.6989 18.75 22.8897 18.671 23.0303 18.5303C23.171 18.3897 23.25 18.1989 23.25 18V3C23.25 2.80109 23.171 2.61032 23.0303 2.46967C22.8897 2.32902 22.6989 2.25 22.5 2.25ZM21.5625 3.9375V14.0625H2.4375V3.9375H21.5625ZM11.2561 16.5975C11.2358 16.4422 11.2646 16.2844 11.3385 16.1463C11.4125 16.0082 11.5278 15.8967 11.6683 15.8274C11.8089 15.7582 11.9675 15.7347 12.1221 15.7603C12.2766 15.7858 12.4193 15.8591 12.5301 15.9699C12.6409 16.0807 12.7142 16.2234 12.7397 16.3779C12.7653 16.5325 12.7418 16.6911 12.6726 16.8317C12.6033 16.9722 12.4918 17.0875 12.3537 17.1615C12.2156 17.2354 12.0578 17.2642 11.9025 17.2439C11.7386 17.2225 11.5863 17.1475 11.4694 17.0306C11.3525 16.9137 11.2775 16.7614 11.2561 16.5975Z" fill="white"/>
</svg>
