<svg width="24" height="24" viewBox="0 0 24 24" fill="none" xmlns="http://www.w3.org/2000/svg">
<path d="M3.00015 6C3.00015 5.73478 3.10551 5.48043 3.29305 5.29289C3.48058 5.10536 3.73494 5 4.00015 5H9.00015C9.26537 5 9.51972 5.10536 9.70726 5.29289C9.8948 5.48043 10.0002 5.73478 10.0002 6V11C10.0002 11.2652 9.8948 11.5196 9.70726 11.7071C9.51972 11.8946 9.26537 12 9.00015 12H4.00015C3.73494 12 3.48058 11.8946 3.29305 11.7071C3.10551 11.5196 3.00015 11.2652 3.00015 11V6ZM4.50015 10.5H8.50015V6.5H4.50015V10.5ZM12.7502 5.5C12.5512 5.5 12.3605 5.57902 12.2198 5.71967C12.0792 5.86032 12.0002 6.05109 12.0002 6.25C12.0002 6.44891 12.0792 6.63968 12.2198 6.78033C12.3605 6.92098 12.5512 7 12.7502 7H20.2502C20.4491 7 20.6398 6.92098 20.7805 6.78033C20.9211 6.63968 21.0002 6.44891 21.0002 6.25C21.0002 6.05109 20.9211 5.86032 20.7805 5.71967C20.6398 5.57902 20.4491 5.5 20.2502 5.5H12.7502ZM12.7502 11.5C12.5512 11.5 12.3605 11.579 12.2198 11.7197C12.0792 11.8603 12.0002 12.0511 12.0002 12.25C12.0002 12.4489 12.0792 12.6397 12.2198 12.7803C12.3605 12.921 12.5512 13 12.7502 13H20.2502C20.4491 13 20.6398 12.921 20.7805 12.7803C20.9211 12.6397 21.0002 12.4489 21.0002 12.25C21.0002 12.0511 20.9211 11.8603 20.7805 11.7197C20.6398 11.579 20.4491 11.5 20.2502 11.5H12.7502ZM12.7502 17.5C12.5512 17.5 12.3605 17.579 12.2198 17.7197C12.0792 17.8603 12.0002 18.0511 12.0002 18.25C12.0002 18.4489 12.0792 18.6397 12.2198 18.7803C12.3605 18.921 12.5512 19 12.7502 19H20.2502C20.4491 19 20.6398 18.921 20.7805 18.7803C20.9211 18.6397 21.0002 18.4489 21.0002 18.25C21.0002 18.0511 20.9211 17.8603 20.7805 17.7197C20.6398 17.579 20.4491 17.5 20.2502 17.5H12.7502ZM9.78015 14.97C9.9206 15.1106 9.99949 15.3012 9.99949 15.5C9.99949 15.6988 9.9206 15.8894 9.78015 16.03L6.28015 19.53C6.13953 19.6705 5.9489 19.7493 5.75015 19.7493C5.5514 19.7493 5.36078 19.6705 5.22015 19.53L3.22015 17.53C3.14647 17.4613 3.08736 17.3785 3.04637 17.2865C3.00538 17.1945 2.98334 17.0952 2.98156 16.9945C2.97979 16.8938 2.99831 16.7938 3.03603 16.7004C3.07375 16.607 3.1299 16.5222 3.20112 16.451C3.27233 16.3797 3.35717 16.3236 3.45056 16.2859C3.54394 16.2482 3.64397 16.2296 3.74468 16.2314C3.84538 16.2332 3.94469 16.2552 4.03669 16.2962C4.12869 16.3372 4.21149 16.3963 4.28015 16.47L5.75015 17.94L8.72015 14.97C8.86078 14.8295 9.0514 14.7507 9.25015 14.7507C9.4489 14.7507 9.63953 14.8295 9.78015 14.97Z" fill="black"/>
</svg>
