<svg width="24" height="24" viewBox="0 0 24 24" fill="none" xmlns="http://www.w3.org/2000/svg">
<path fill-rule="evenodd" clip-rule="evenodd" d="M12 24C18.6274 24 24 18.6274 24 12C24 5.37258 18.6274 0 12 0C5.37258 0 0 5.37258 0 12C0 18.6274 5.37258 24 12 24ZM3.33398 18.5833C3.33398 20 4.75065 20 4.75065 20H18.9173C18.9173 20 20.334 20 20.334 18.5833C20.334 17.1667 18.9173 12.9167 11.834 12.9167C4.75065 12.9167 3.33398 17.1667 3.33398 18.5833ZM14.8392 10.2552C14.0422 11.0522 12.9612 11.5 11.834 11.5C10.7068 11.5 9.62581 11.0522 8.82878 10.2552C8.03175 9.45817 7.58398 8.37717 7.58398 7.25C7.58398 6.12283 8.03175 5.04183 8.82878 4.2448C9.62581 3.44777 10.7068 3 11.834 3C12.9612 3 14.0422 3.44777 14.8392 4.2448C15.6362 5.04183 16.084 6.12283 16.084 7.25C16.084 8.37717 15.6362 9.45817 14.8392 10.2552Z" fill="white"/>
</svg>
