<svg width="24" height="24" viewBox="0 0 24 24" fill="none" xmlns="http://www.w3.org/2000/svg">
<path d="M21 7.3526V16.6466C21 16.8645 20.8819 17.0652 20.6914 17.1711L12.2914 21.8377C12.1102 21.9384 11.8898 21.9384 11.7086 21.8377L3.30863 17.1711C3.11816 17.0652 3.00002 16.8645 3.00002 16.6466L3 7.3526C3 7.1347 3.11814 6.93393 3.30862 6.82811L11.7086 2.16144C11.8898 2.06077 12.1102 2.06077 12.2914 2.16144L20.6914 6.82811C20.8818 6.93393 21 7.1347 21 7.3526Z" stroke="black" stroke-width="1.5" stroke-linecap="round" stroke-linejoin="round"/>
<path d="M20.5 16.7218L12.2914 12.1615C12.1102 12.0608 11.8898 12.0608 11.7086 12.1615L3.5 16.7218" stroke="black" stroke-width="1.5" stroke-linecap="round" stroke-linejoin="round"/>
<path d="M3.52832 7.29314L11.7085 11.8377C11.8897 11.9384 12.1101 11.9384 12.2913 11.8377L20.4999 7.27734" stroke="black" stroke-width="1.5" stroke-linecap="round" stroke-linejoin="round"/>
<path d="M12 21V3" stroke="black" stroke-width="1.5" stroke-linecap="round" stroke-linejoin="round"/>
</svg>
