<svg width="16" height="17" viewBox="0 0 16 17" fill="none" xmlns="http://www.w3.org/2000/svg">
<path d="M11 7C11 6.86739 11.0527 6.74021 11.1464 6.64645C11.2402 6.55268 11.3674 6.5 11.5 6.5H12.5C12.6326 6.5 12.7598 6.55268 12.8536 6.64645C12.9473 6.74021 13 6.86739 13 7V8C13 8.13261 12.9473 8.25979 12.8536 8.35355C12.7598 8.44732 12.6326 8.5 12.5 8.5H11.5C11.3674 8.5 11.2402 8.44732 11.1464 8.35355C11.0527 8.25979 11 8.13261 11 8V7Z" fill="#0F172A"/>
<path d="M3.5 0.5C3.63261 0.5 3.75979 0.552678 3.85355 0.646447C3.94732 0.740215 4 0.867392 4 1V1.5H12V1C12 0.867392 12.0527 0.740215 12.1464 0.646447C12.2402 0.552678 12.3674 0.5 12.5 0.5C12.6326 0.5 12.7598 0.552678 12.8536 0.646447C12.9473 0.740215 13 0.867392 13 1V1.5H14C14.5304 1.5 15.0391 1.71071 15.4142 2.08579C15.7893 2.46086 16 2.96957 16 3.5V14.5C16 15.0304 15.7893 15.5391 15.4142 15.9142C15.0391 16.2893 14.5304 16.5 14 16.5H2C1.46957 16.5 0.960859 16.2893 0.585786 15.9142C0.210714 15.5391 0 15.0304 0 14.5V3.5C0 2.96957 0.210714 2.46086 0.585786 2.08579C0.960859 1.71071 1.46957 1.5 2 1.5H3V1C3 0.867392 3.05268 0.740215 3.14645 0.646447C3.24021 0.552678 3.36739 0.5 3.5 0.5ZM1 4.5V14.5C1 14.7652 1.10536 15.0196 1.29289 15.2071C1.48043 15.3946 1.73478 15.5 2 15.5H14C14.2652 15.5 14.5196 15.3946 14.7071 15.2071C14.8946 15.0196 15 14.7652 15 14.5V4.5H1Z" fill="#0F172A"/>
</svg>
