<svg width="897" height="614" viewBox="0 0 897 614" fill="none" xmlns="http://www.w3.org/2000/svg">
<path d="M395.108 498.05C395.61 490.15 402.163 484 410.078 484H483.922C491.837 484 498.39 490.15 498.892 498.05L500.987 531.05C501.536 539.69 494.676 547 486.017 547H407.983C399.324 547 392.464 539.69 393.013 531.05L395.108 498.05Z" fill="#DA9500"/>
<rect x="263.5" y="246.5" width="367" height="252" rx="7.5" fill="#FFF1D1" stroke="#F8AA00" stroke-width="15" stroke-linejoin="round"/>
<rect x="264" y="454" width="367" height="42" fill="#F8AA00"/>
<path d="M302.032 564.326C303.202 560.564 306.685 558 310.625 558H583.375C587.315 558 590.798 560.564 591.968 564.326L600.368 591.326C602.171 597.119 597.841 603 591.775 603H302.225C296.159 603 291.829 597.12 293.632 591.326L302.032 564.326Z" fill="#F8AA00"/>
<path d="M302.877 591.963C303.602 591.342 304.525 591 305.48 591H588.52C589.475 591 590.398 591.342 591.123 591.963L595.79 595.963C598.61 598.38 596.901 603 593.187 603H300.813C297.099 603 295.39 598.38 298.21 595.963L302.877 591.963Z" fill="#DA9500"/>
<path d="M464.5 314C463.572 314 462.681 313.631 462.025 312.975C461.369 312.318 461 311.428 461 310.5V300C461 296.287 459.525 292.726 456.899 290.101C454.274 287.475 450.713 286 447 286C443.287 286 439.726 287.475 437.101 290.101C434.475 292.726 433 296.287 433 300V310.5C433 311.428 432.631 312.318 431.975 312.975C431.318 313.631 430.428 314 429.5 314C428.572 314 427.682 313.631 427.025 312.975C426.369 312.318 426 311.428 426 310.5V300C426 294.43 428.212 289.089 432.151 285.151C436.089 281.212 441.43 279 447 279C452.57 279 457.911 281.212 461.849 285.151C465.788 289.089 468 294.43 468 300V310.5C468 311.428 467.631 312.318 466.975 312.975C466.319 313.631 465.428 314 464.5 314Z" fill="url(#paint0_linear_890_307)"/>
<path d="M468 310.5H426C420.201 310.5 415.5 315.201 415.5 321V349C415.5 354.799 420.201 359.5 426 359.5H468C473.799 359.5 478.5 354.799 478.5 349V321C478.5 315.201 473.799 310.5 468 310.5Z" fill="#262262"/>
<path d="M447 349C446.072 349 445.182 348.631 444.525 347.975C443.869 347.318 443.5 346.428 443.5 345.5V335C443.5 334.072 443.869 333.182 444.525 332.525C445.182 331.869 446.072 331.5 447 331.5C447.928 331.5 448.818 331.869 449.475 332.525C450.131 333.182 450.5 334.072 450.5 335V345.5C450.5 346.428 450.131 347.318 449.475 347.975C448.818 348.631 447.928 349 447 349Z" fill="white"/>
<path d="M447 338.5C450.866 338.5 454 335.366 454 331.5C454 327.634 450.866 324.5 447 324.5C443.134 324.5 440 327.634 440 331.5C440 335.366 443.134 338.5 447 338.5Z" fill="white"/>
<path d="M426 74H329.976L290 214.854H329.976L296.594 345L422.291 191.378H364.594L426 74Z" fill="#050049"/>
<rect x="362" y="376" width="170" height="44" rx="7" fill="white" stroke="#262262" stroke-width="6"/>
<path d="M411.156 396.256L406.368 398.884V397.948L411.156 400.54L409.392 403.492L404.928 400.828L405.432 400.504L405.504 405.508H402.12L402.156 400.504L402.66 400.828L398.196 403.492L396.468 400.54L401.256 397.948V398.884L396.468 396.256L398.196 393.304L402.66 396.004L402.156 396.292L402.12 391.288H405.504L405.432 396.292L404.928 396.004L409.392 393.304L411.156 396.256ZM439.709 396.256L434.921 398.884V397.948L439.709 400.54L437.945 403.492L433.481 400.828L433.985 400.504L434.056 405.508H430.672L430.708 400.504L431.212 400.828L426.748 403.492L425.02 400.54L429.809 397.948V398.884L425.02 396.256L426.748 393.304L431.212 396.004L430.708 396.292L430.672 391.288H434.056L433.985 396.292L433.481 396.004L437.945 393.304L439.709 396.256ZM468.261 396.256L463.473 398.884V397.948L468.261 400.54L466.497 403.492L462.033 400.828L462.537 400.504L462.609 405.508H459.225L459.261 400.504L459.765 400.828L455.301 403.492L453.573 400.54L458.361 397.948V398.884L453.573 396.256L455.301 393.304L459.765 396.004L459.261 396.292L459.225 391.288H462.609L462.537 396.292L462.033 396.004L466.497 393.304L468.261 396.256ZM496.814 396.256L492.026 398.884V397.948L496.814 400.54L495.05 403.492L490.586 400.828L491.09 400.504L491.162 405.508H487.778L487.814 400.504L488.318 400.828L483.854 403.492L482.126 400.54L486.914 397.948V398.884L482.126 396.256L483.854 393.304L488.318 396.004L487.814 396.292L487.778 391.288H491.162L491.09 396.292L490.586 396.004L495.05 393.304L496.814 396.256Z" fill="black"/>
<circle cx="241.5" cy="107.5" r="89.5" fill="white" stroke="#CD4527" stroke-width="12"/>
<g clip-path="url(#clip0_890_307)">
<path d="M272.046 79.3343C272.046 98.7616 258.499 109.891 241.787 109.891C225.076 109.891 211.528 98.7616 211.528 79.3343C211.528 59.9071 225.076 39.5391 241.787 39.5391C258.499 39.5391 272.046 59.9071 272.046 79.3343Z" fill="black"/>
<path d="M291.715 126.534C291.715 152.143 270.162 180.622 240.916 180.622C180.002 173.814 173.193 157.928 182.289 125.399C191.386 92.8707 211.671 94.7431 240.916 94.7431C270.162 94.7431 291.715 100.925 291.715 126.534Z" fill="black"/>
<path d="M261.324 79.6323C261.324 91.7482 252.179 105.353 240.899 105.353C229.619 105.353 220.474 91.7482 220.474 79.6323C220.474 67.5164 229.619 73.5807 240.899 73.5807C252.179 73.5807 261.324 67.5164 261.324 79.6323Z" fill="white"/>
<path d="M263.593 75.0933C263.593 78.4356 252 92.4923 241.031 79.6322C228.928 94.3835 217.448 78.4356 217.448 75.0933C217.448 71.751 227.778 69.0415 240.521 69.0415C253.263 69.0415 263.593 71.751 263.593 75.0933Z" fill="black"/>
<path d="M235.982 77.7412C235.982 79.8302 233.233 81.1454 230.308 81.1454C227.384 81.1454 224.256 77.9389 224.256 75.85C224.256 73.761 225.871 73.5806 228.795 73.5806C231.72 73.5806 235.982 75.6523 235.982 77.7412Z" fill="white"/>
<g clip-path="url(#clip1_890_307)">
<path d="M210.016 79.3343C210.016 98.7616 223.563 109.891 240.275 109.891C256.986 109.891 270.534 98.7616 270.534 79.3343C270.534 59.9071 256.986 39.5391 240.275 39.5391C223.563 39.5391 210.016 59.9071 210.016 79.3343Z" fill="black"/>
<path d="M182.519 125.399C182.519 151.009 211.9 180.622 241.146 180.622C302.06 173.814 308.869 157.928 299.773 125.399C290.676 92.8707 270.391 94.7431 241.146 94.7431C211.9 94.7431 182.519 99.7898 182.519 125.399Z" fill="black"/>
<path d="M220.739 79.6323C220.739 91.7482 229.883 105.353 241.164 105.353C252.444 105.353 261.588 91.7482 261.588 79.6323C261.588 67.5164 252.444 73.5807 241.164 73.5807C229.883 73.5807 220.739 67.5164 220.739 79.6323Z" fill="white"/>
<path d="M218.469 75.0933C218.469 78.4356 228.289 79.6322 241.031 79.6322C253.135 94.3835 264.614 78.4356 264.614 75.0933C264.614 71.751 254.284 69.0415 241.542 69.0415C228.799 69.0415 218.469 71.751 218.469 75.0933Z" fill="black"/>
<path d="M246.08 77.7412C246.08 79.8302 248.829 81.1454 251.754 81.1454C254.678 81.1454 257.806 77.9389 257.806 75.85C257.806 73.761 256.191 73.5806 253.267 73.5806C250.342 73.5806 246.08 75.6523 246.08 77.7412Z" fill="white"/>
</g>
<path d="M202.278 127.428C202.199 125.913 203.406 124.643 204.922 124.643H274.871C276.387 124.643 277.594 125.913 277.515 127.428L274.882 178.111C274.809 179.518 273.647 180.622 272.238 180.622H207.555C206.146 180.622 204.984 179.518 204.911 178.111L202.278 127.428Z" fill="black" stroke="white" stroke-width="2.26943"/>
<rect x="205.477" y="170.409" width="68.8394" height="2.26943" fill="white"/>
</g>
<rect x="172.646" y="52.4351" width="12" height="181.333" transform="rotate(-45 172.646 52.4351)" fill="#CD4527"/>
<path d="M569 116H653L569 200H653" stroke="#050049" stroke-width="20" stroke-linecap="round" stroke-linejoin="round"/>
<path d="M690 184H751L690 245H751" stroke="#050049" stroke-width="20" stroke-linecap="round" stroke-linejoin="round"/>
<path d="M613 239H664L613 290H664" stroke="#050049" stroke-width="20" stroke-linecap="round" stroke-linejoin="round"/>
<defs>
<linearGradient id="paint0_linear_890_307" x1="447" y1="279.669" x2="447" y2="310.444" gradientUnits="userSpaceOnUse">
<stop stop-color="#5D5C66"/>
<stop offset="1" stop-color="#48474F"/>
</linearGradient>
<clipPath id="clip0_890_307">
<rect width="124.062" height="146" fill="white" transform="translate(179 35)"/>
</clipPath>
<clipPath id="clip1_890_307">
<rect width="61.2746" height="146" fill="white" transform="matrix(-1 0 0 1 303.062 35)"/>
</clipPath>
</defs>
</svg>
