<svg width="921" height="635" viewBox="0 0 921 635" fill="none" xmlns="http://www.w3.org/2000/svg">
<mask id="path-1-inside-1_872_1071" fill="white">
<rect x="294" width="627" height="635" rx="15"/>
</mask>
<rect x="294" width="627" height="635" rx="15" fill="white" stroke="#F8AA00" stroke-width="40" mask="url(#path-1-inside-1_872_1071)"/>
<rect x="306" y="6" width="104" height="88" rx="15" fill="#F8AA00"/>
<path d="M391.25 36V47V58V74.5C391.25 77.525 388.416 80 384.917 80H340.583C337.085 80 334.25 77.525 334.25 74.5V58V47V36H391.25Z" fill="#6A6F70"/>
<path d="M334.25 34V45V56V72.5C334.25 75.525 337.085 78 340.583 78H384.917C388.416 78 391.25 75.525 391.25 72.5V56V45V34H334.25Z" fill="#95A5A6"/>
<path d="M334.25 34V36.6923V47.4615V63.6154C334.25 66.5769 337.085 69 340.583 69H384.917C388.416 69 391.25 66.5769 391.25 63.6154V47.4615V36.6923V34H334.25Z" fill="#EBF1F4"/>
<path d="M334.25 56V53.2308V42.1538V25.5385C334.25 22.4923 337.085 20 340.583 20H384.917C388.416 20 391.25 22.4923 391.25 25.5385V42.1538V53.2308V56H334.25Z" fill="#EBF1F4"/>
<path d="M387.5 73.3748C387.494 74.4669 387.055 75.5121 386.28 76.2812C385.505 77.0504 384.456 77.4807 383.364 77.4778C382.272 77.4749 381.226 77.039 380.454 76.2657C379.683 75.4924 379.25 74.4449 379.25 73.3528C379.25 72.2607 379.683 71.2131 380.454 70.4399C381.226 69.6666 382.272 69.2307 383.364 69.2278C384.456 69.2249 385.505 69.6552 386.28 70.4243C387.055 71.1935 387.494 72.2387 387.5 73.3308L383.375 73.3748H387.5Z" fill="#7F8C8D"/>
<path d="M379.25 73.3748C379.244 74.4669 378.805 75.5121 378.03 76.2812C377.255 77.0504 376.206 77.4807 375.114 77.4778C374.022 77.4749 372.976 77.039 372.204 76.2657C371.433 75.4924 371 74.4449 371 73.3528C371 72.2607 371.433 71.2131 372.204 70.4399C372.976 69.6666 374.022 69.2307 375.114 69.2278C376.206 69.2249 377.255 69.6552 378.03 70.4243C378.805 71.1935 379.244 72.2387 379.25 73.3308L375.125 73.3748H379.25Z" fill="#7F8C8D"/>
<path d="M376.5 73.3748C376.498 73.7389 376.352 74.0874 376.094 74.3438C375.835 74.6003 375.486 74.7438 375.122 74.7429C374.757 74.742 374.409 74.5967 374.152 74.339C373.894 74.0812 373.75 73.732 373.75 73.3679C373.75 73.0038 373.894 72.6546 374.152 72.3969C374.409 72.1391 374.757 71.9938 375.122 71.9929C375.486 71.992 375.835 72.1355 376.094 72.392C376.352 72.6485 376.498 72.997 376.5 73.361L375.125 73.3748H376.5Z" fill="#F1C40F"/>
<path d="M384.75 73.3748C384.748 73.7389 384.602 74.0874 384.344 74.3438C384.085 74.6003 383.736 74.7438 383.372 74.7429C383.007 74.742 382.659 74.5967 382.402 74.339C382.144 74.0812 382 73.732 382 73.3679C382 73.0038 382.144 72.6546 382.402 72.3969C382.659 72.1391 383.007 71.9938 383.372 71.9929C383.736 71.992 384.085 72.1355 384.344 72.392C384.602 72.6485 384.748 72.997 384.75 73.361L383.375 73.3748H384.75Z" fill="#2ECC71"/>
<path d="M343.042 63.0833C342.589 63.0833 342.154 62.9033 341.834 62.583C341.513 62.2626 341.333 61.8281 341.333 61.375V56.25C341.333 54.4377 340.613 52.6996 339.332 51.4181C338.05 50.1366 336.312 49.4167 334.5 49.4167C332.688 49.4167 330.95 50.1366 329.668 51.4181C328.387 52.6996 327.667 54.4377 327.667 56.25V61.375C327.667 61.8281 327.487 62.2626 327.166 62.583C326.846 62.9033 326.411 63.0833 325.958 63.0833C325.505 63.0833 325.071 62.9033 324.75 62.583C324.43 62.2626 324.25 61.8281 324.25 61.375V56.25C324.25 53.5315 325.33 50.9244 327.252 49.0022C329.174 47.0799 331.782 46 334.5 46C337.218 46 339.826 47.0799 341.748 49.0022C343.67 50.9244 344.75 53.5315 344.75 56.25V61.375C344.75 61.8281 344.57 62.2626 344.25 62.583C343.929 62.9033 343.495 63.0833 343.042 63.0833Z" fill="url(#paint0_linear_872_1071)"/>
<path d="M344.75 61.375H324.25C321.42 61.375 319.125 63.6695 319.125 66.5V80.1667C319.125 82.9971 321.42 85.2917 324.25 85.2917H344.75C347.58 85.2917 349.875 82.9971 349.875 80.1667V66.5C349.875 63.6695 347.58 61.375 344.75 61.375Z" fill="#262262"/>
<path d="M334.5 80.1667C334.047 80.1667 333.612 79.9867 333.292 79.6663C332.971 79.3459 332.792 78.9114 332.792 78.4583V73.3333C332.792 72.8803 332.971 72.4457 333.292 72.1254C333.612 71.805 334.047 71.625 334.5 71.625C334.953 71.625 335.387 71.805 335.708 72.1254C336.028 72.4457 336.208 72.8803 336.208 73.3333V78.4583C336.208 78.9114 336.028 79.3459 335.708 79.6663C335.387 79.9867 334.953 80.1667 334.5 80.1667Z" fill="white"/>
<path d="M334.5 75.0416C336.387 75.0416 337.917 73.5119 337.917 71.6249C337.917 69.7379 336.387 68.2083 334.5 68.2083C332.613 68.2083 331.083 69.7379 331.083 71.6249C331.083 73.5119 332.613 75.0416 334.5 75.0416Z" fill="white"/>
<path d="M438.39 67.36C436.71 67.36 435.1 67.14 433.56 66.7C432.02 66.24 430.78 65.65 429.84 64.93L431.49 61.27C432.39 61.91 433.45 62.44 434.67 62.86C435.91 63.26 437.16 63.46 438.42 63.46C439.38 63.46 440.15 63.37 440.73 63.19C441.33 62.99 441.77 62.72 442.05 62.38C442.33 62.04 442.47 61.65 442.47 61.21C442.47 60.65 442.25 60.21 441.81 59.89C441.37 59.55 440.79 59.28 440.07 59.08C439.35 58.86 438.55 58.66 437.67 58.48C436.81 58.28 435.94 58.04 435.06 57.76C434.2 57.48 433.41 57.12 432.69 56.68C431.97 56.24 431.38 55.66 430.92 54.94C430.48 54.22 430.26 53.3 430.26 52.18C430.26 50.98 430.58 49.89 431.22 48.91C431.88 47.91 432.86 47.12 434.16 46.54C435.48 45.94 437.13 45.64 439.11 45.64C440.43 45.64 441.73 45.8 443.01 46.12C444.29 46.42 445.42 46.88 446.4 47.5L444.9 51.19C443.92 50.63 442.94 50.22 441.96 49.96C440.98 49.68 440.02 49.54 439.08 49.54C438.14 49.54 437.37 49.65 436.77 49.87C436.17 50.09 435.74 50.38 435.48 50.74C435.22 51.08 435.09 51.48 435.09 51.94C435.09 52.48 435.31 52.92 435.75 53.26C436.19 53.58 436.77 53.84 437.49 54.04C438.21 54.24 439 54.44 439.86 54.64C440.74 54.84 441.61 55.07 442.47 55.33C443.35 55.59 444.15 55.94 444.87 56.38C445.59 56.82 446.17 57.4 446.61 58.12C447.07 58.84 447.3 59.75 447.3 60.85C447.3 62.03 446.97 63.11 446.31 64.09C445.65 65.07 444.66 65.86 443.34 66.46C442.04 67.06 440.39 67.36 438.39 67.36ZM460.191 67V63.85L459.891 63.16V57.52C459.891 56.52 459.581 55.74 458.961 55.18C458.361 54.62 457.431 54.34 456.171 54.34C455.311 54.34 454.461 54.48 453.621 54.76C452.801 55.02 452.101 55.38 451.521 55.84L449.841 52.57C450.721 51.95 451.781 51.47 453.021 51.13C454.261 50.79 455.521 50.62 456.801 50.62C459.261 50.62 461.171 51.2 462.531 52.36C463.891 53.52 464.571 55.33 464.571 57.79V67H460.191ZM455.271 67.24C454.011 67.24 452.931 67.03 452.031 66.61C451.131 66.17 450.441 65.58 449.961 64.84C449.481 64.1 449.241 63.27 449.241 62.35C449.241 61.39 449.471 60.55 449.931 59.83C450.411 59.11 451.161 58.55 452.181 58.15C453.201 57.73 454.531 57.52 456.171 57.52H460.461V60.25H456.681C455.581 60.25 454.821 60.43 454.401 60.79C454.001 61.15 453.801 61.6 453.801 62.14C453.801 62.74 454.031 63.22 454.491 63.58C454.971 63.92 455.621 64.09 456.441 64.09C457.221 64.09 457.921 63.91 458.541 63.55C459.161 63.17 459.611 62.62 459.891 61.9L460.611 64.06C460.271 65.1 459.651 65.89 458.751 66.43C457.851 66.97 456.691 67.24 455.271 67.24ZM469.376 67V50.5C469.376 48.68 469.916 47.23 470.996 46.15C472.076 45.05 473.616 44.5 475.616 44.5C476.296 44.5 476.946 44.57 477.566 44.71C478.206 44.85 478.746 45.07 479.186 45.37L477.956 48.76C477.696 48.58 477.406 48.44 477.086 48.34C476.766 48.24 476.426 48.19 476.066 48.19C475.386 48.19 474.856 48.39 474.476 48.79C474.116 49.17 473.936 49.75 473.936 50.53V52.03L474.056 54.04V67H469.376ZM466.886 54.82V51.22H478.076V54.82H466.886ZM488.213 67.24C486.373 67.24 484.753 66.88 483.353 66.16C481.973 65.44 480.903 64.46 480.143 63.22C479.383 61.96 479.003 60.53 479.003 58.93C479.003 57.31 479.373 55.88 480.113 54.64C480.873 53.38 481.903 52.4 483.203 51.7C484.503 50.98 485.973 50.62 487.613 50.62C489.193 50.62 490.613 50.96 491.873 51.64C493.153 52.3 494.163 53.26 494.903 54.52C495.643 55.76 496.013 57.25 496.013 58.99C496.013 59.17 496.003 59.38 495.983 59.62C495.963 59.84 495.943 60.05 495.923 60.25H482.813V57.52H493.463L491.663 58.33C491.663 57.49 491.493 56.76 491.153 56.14C490.813 55.52 490.343 55.04 489.743 54.7C489.143 54.34 488.443 54.16 487.643 54.16C486.843 54.16 486.133 54.34 485.513 54.7C484.913 55.04 484.443 55.53 484.103 56.17C483.763 56.79 483.593 57.53 483.593 58.39V59.11C483.593 59.99 483.783 60.77 484.163 61.45C484.563 62.11 485.113 62.62 485.813 62.98C486.533 63.32 487.373 63.49 488.333 63.49C489.193 63.49 489.943 63.36 490.583 63.1C491.243 62.84 491.843 62.45 492.383 61.93L494.873 64.63C494.133 65.47 493.203 66.12 492.083 66.58C490.963 67.02 489.673 67.24 488.213 67.24ZM505.729 67.24C503.829 67.24 502.349 66.76 501.289 65.8C500.229 64.82 499.699 63.37 499.699 61.45V47.29H504.379V61.39C504.379 62.07 504.559 62.6 504.919 62.98C505.279 63.34 505.769 63.52 506.389 63.52C507.129 63.52 507.759 63.32 508.279 62.92L509.539 66.22C509.059 66.56 508.479 66.82 507.799 67C507.139 67.16 506.449 67.24 505.729 67.24ZM497.209 54.82V51.22H508.399V54.82H497.209ZM513.913 73.06C513.073 73.06 512.243 72.93 511.423 72.67C510.603 72.41 509.933 72.05 509.413 71.59L511.123 68.26C511.483 68.58 511.893 68.83 512.353 69.01C512.833 69.19 513.303 69.28 513.763 69.28C514.423 69.28 514.943 69.12 515.323 68.8C515.723 68.5 516.083 67.99 516.403 67.27L517.243 65.29L517.603 64.78L523.393 50.86H527.893L520.603 67.99C520.083 69.29 519.483 70.31 518.803 71.05C518.143 71.79 517.403 72.31 516.583 72.61C515.783 72.91 514.893 73.06 513.913 73.06ZM516.673 67.63L509.473 50.86H514.303L519.883 64.36L516.673 67.63ZM537.279 67V63.85L550.269 48.19L550.869 49.96H537.519V46H555.189V49.15L542.229 64.81L541.629 63.04H555.639V67H537.279ZM565.93 67.24C564.21 67.24 562.68 66.88 561.34 66.16C560.02 65.44 558.97 64.46 558.19 63.22C557.43 61.96 557.05 60.53 557.05 58.93C557.05 57.31 557.43 55.88 558.19 54.64C558.97 53.38 560.02 52.4 561.34 51.7C562.68 50.98 564.21 50.62 565.93 50.62C567.63 50.62 569.15 50.98 570.49 51.7C571.83 52.4 572.88 53.37 573.64 54.61C574.4 55.85 574.78 57.29 574.78 58.93C574.78 60.53 574.4 61.96 573.64 63.22C572.88 64.46 571.83 65.44 570.49 66.16C569.15 66.88 567.63 67.24 565.93 67.24ZM565.93 63.4C566.71 63.4 567.41 63.22 568.03 62.86C568.65 62.5 569.14 61.99 569.5 61.33C569.86 60.65 570.04 59.85 570.04 58.93C570.04 57.99 569.86 57.19 569.5 56.53C569.14 55.87 568.65 55.36 568.03 55C567.41 54.64 566.71 54.46 565.93 54.46C565.15 54.46 564.45 54.64 563.83 55C563.21 55.36 562.71 55.87 562.33 56.53C561.97 57.19 561.79 57.99 561.79 58.93C561.79 59.85 561.97 60.65 562.33 61.33C562.71 61.99 563.21 62.5 563.83 62.86C564.45 63.22 565.15 63.4 565.93 63.4ZM587.718 50.62C588.998 50.62 590.138 50.88 591.138 51.4C592.158 51.9 592.958 52.68 593.538 53.74C594.118 54.78 594.408 56.12 594.408 57.76V67H589.728V58.48C589.728 57.18 589.438 56.22 588.858 55.6C588.298 54.98 587.498 54.67 586.458 54.67C585.718 54.67 585.048 54.83 584.448 55.15C583.868 55.45 583.408 55.92 583.068 56.56C582.748 57.2 582.588 58.02 582.588 59.02V67H577.908V50.86H582.378V55.33L581.538 53.98C582.118 52.9 582.948 52.07 584.028 51.49C585.108 50.91 586.338 50.62 587.718 50.62ZM606.777 67.24C604.937 67.24 603.317 66.88 601.917 66.16C600.537 65.44 599.467 64.46 598.707 63.22C597.947 61.96 597.567 60.53 597.567 58.93C597.567 57.31 597.937 55.88 598.677 54.64C599.437 53.38 600.467 52.4 601.767 51.7C603.067 50.98 604.537 50.62 606.177 50.62C607.757 50.62 609.177 50.96 610.437 51.64C611.717 52.3 612.727 53.26 613.467 54.52C614.207 55.76 614.577 57.25 614.577 58.99C614.577 59.17 614.567 59.38 614.547 59.62C614.527 59.84 614.507 60.05 614.487 60.25H601.377V57.52H612.027L610.227 58.33C610.227 57.49 610.057 56.76 609.717 56.14C609.377 55.52 608.907 55.04 608.307 54.7C607.707 54.34 607.007 54.16 606.207 54.16C605.407 54.16 604.697 54.34 604.077 54.7C603.477 55.04 603.007 55.53 602.667 56.17C602.327 56.79 602.157 57.53 602.157 58.39V59.11C602.157 59.99 602.347 60.77 602.727 61.45C603.127 62.11 603.677 62.62 604.377 62.98C605.097 63.32 605.937 63.49 606.897 63.49C607.757 63.49 608.507 63.36 609.147 63.1C609.807 62.84 610.407 62.45 610.947 61.93L613.437 64.63C612.697 65.47 611.767 66.12 610.647 66.58C609.527 67.02 608.237 67.24 606.777 67.24Z" fill="#262262"/>
<g clip-path="url(#clip0_872_1071)">
<path fill-rule="evenodd" clip-rule="evenodd" d="M493 231.158V301.552C493 306.218 489.201 310 484.517 310H419.483C414.797 310 411 306.218 411 301.552V211.448C411 206.782 414.797 203 419.483 203H464.723L493 231.158Z" fill="#C1C1C1"/>
<path fill-rule="evenodd" clip-rule="evenodd" d="M493 229.581V233.085H469.885C465.098 233.085 462.891 229.207 462.891 224.423V203H466.392L493 229.581Z" fill="#7C7C7C"/>
</g>
<rect x="395" y="251" width="83" height="43" rx="7" fill="#DEDEDE"/>
<path d="M403.49 283V262H407.51L416.45 276.82H414.32L423.11 262H427.1L427.16 283H422.6L422.57 268.99H423.41L416.39 280.78H414.2L407.03 268.99H408.05V283H403.49ZM432.142 283V262H441.232C443.112 262 444.732 262.31 446.092 262.93C447.452 263.53 448.502 264.4 449.242 265.54C449.982 266.68 450.352 268.04 450.352 269.62C450.352 271.18 449.982 272.53 449.242 273.67C448.502 274.81 447.452 275.69 446.092 276.31C444.732 276.91 443.112 277.21 441.232 277.21H434.842L437.002 275.02V283H432.142ZM437.002 275.56L434.842 273.25H440.962C442.462 273.25 443.582 272.93 444.322 272.29C445.062 271.65 445.432 270.76 445.432 269.62C445.432 268.46 445.062 267.56 444.322 266.92C443.582 266.28 442.462 265.96 440.962 265.96H434.842L437.002 263.65V275.56ZM451.647 278.59V275.32L461.547 262H466.647L456.957 275.32L454.587 274.63H471.117V278.59H451.647ZM462.957 283V278.59L463.107 274.63V270.7H467.697V283H462.957Z" fill="white"/>
<path d="M500.542 286.083C499.956 286.083 499.394 285.851 498.98 285.437C498.566 285.022 498.333 284.461 498.333 283.875V277.25C498.333 274.907 497.403 272.66 495.746 271.004C494.09 269.347 491.843 268.417 489.5 268.417C487.157 268.417 484.91 269.347 483.254 271.004C481.597 272.66 480.667 274.907 480.667 277.25V283.875C480.667 284.461 480.434 285.022 480.02 285.437C479.606 285.851 479.044 286.083 478.458 286.083C477.873 286.083 477.311 285.851 476.897 285.437C476.483 285.022 476.25 284.461 476.25 283.875V277.25C476.25 273.736 477.646 270.366 480.131 267.881C482.616 265.396 485.986 264 489.5 264C493.014 264 496.384 265.396 498.869 267.881C501.354 270.366 502.75 273.736 502.75 277.25V283.875C502.75 284.461 502.517 285.022 502.103 285.437C501.689 285.851 501.127 286.083 500.542 286.083Z" fill="#A4A4A4"/>
<path d="M502.75 283.875H476.25C472.591 283.875 469.625 286.841 469.625 290.5V308.167C469.625 311.826 472.591 314.792 476.25 314.792H502.75C506.409 314.792 509.375 311.826 509.375 308.167V290.5C509.375 286.841 506.409 283.875 502.75 283.875Z" fill="#575757"/>
<path d="M489.5 308.167C488.914 308.167 488.352 307.934 487.938 307.52C487.524 307.106 487.292 306.544 487.292 305.958V299.333C487.292 298.748 487.524 298.186 487.938 297.772C488.352 297.358 488.914 297.125 489.5 297.125C490.086 297.125 490.647 297.358 491.061 297.772C491.476 298.186 491.708 298.748 491.708 299.333V305.958C491.708 306.544 491.476 307.106 491.061 307.52C490.647 307.934 490.086 308.167 489.5 308.167Z" fill="#A4A4A4"/>
<path d="M489.5 301.542C491.939 301.542 493.917 299.564 493.917 297.125C493.917 294.686 491.939 292.708 489.5 292.708C487.061 292.708 485.083 294.686 485.083 297.125C485.083 299.564 487.061 301.542 489.5 301.542Z" fill="#A4A4A4"/>
<g clip-path="url(#clip1_872_1071)">
<path fill-rule="evenodd" clip-rule="evenodd" d="M654 231.158V301.552C654 306.218 650.201 310 645.517 310H580.483C575.797 310 572 306.218 572 301.552V211.448C572 206.782 575.797 203 580.483 203H625.723L654 231.158Z" fill="#C1C1C1"/>
<path fill-rule="evenodd" clip-rule="evenodd" d="M654 229.581V233.085H630.885C626.098 233.085 623.891 229.207 623.891 224.423V203H627.392L654 229.581Z" fill="#7C7C7C"/>
</g>
<rect x="556" y="251" width="83" height="43" rx="7" fill="#DEDEDE"/>
<path d="M564.49 283V262H573.58C575.46 262 577.08 262.31 578.44 262.93C579.8 263.53 580.85 264.4 581.59 265.54C582.33 266.68 582.7 268.04 582.7 269.62C582.7 271.18 582.33 272.53 581.59 273.67C580.85 274.81 579.8 275.69 578.44 276.31C577.08 276.91 575.46 277.21 573.58 277.21H567.19L569.35 275.02V283H564.49ZM569.35 275.56L567.19 273.25H573.31C574.81 273.25 575.93 272.93 576.67 272.29C577.41 271.65 577.78 270.76 577.78 269.62C577.78 268.46 577.41 267.56 576.67 266.92C575.93 266.28 574.81 265.96 573.31 265.96H567.19L569.35 263.65V275.56ZM586.17 283V262H595.71C597.99 262 600 262.44 601.74 263.32C603.48 264.18 604.84 265.39 605.82 266.95C606.8 268.51 607.29 270.36 607.29 272.5C607.29 274.62 606.8 276.47 605.82 278.05C604.84 279.61 603.48 280.83 601.74 281.71C600 282.57 597.99 283 595.71 283H586.17ZM591.03 279.01H595.47C596.87 279.01 598.08 278.75 599.1 278.23C600.14 277.69 600.94 276.93 601.5 275.95C602.08 274.97 602.37 273.82 602.37 272.5C602.37 271.16 602.08 270.01 601.5 269.05C600.94 268.07 600.14 267.32 599.1 266.8C598.08 266.26 596.87 265.99 595.47 265.99H591.03V279.01ZM615.455 271.45H625.535V275.35H615.455V271.45ZM615.815 283H610.955V262H626.825V265.9H615.815V283Z" fill="white"/>
<path d="M661.542 286.083C660.956 286.083 660.394 285.851 659.98 285.437C659.566 285.022 659.333 284.461 659.333 283.875V277.25C659.333 274.907 658.403 272.66 656.746 271.004C655.09 269.347 652.843 268.417 650.5 268.417C648.157 268.417 645.91 269.347 644.254 271.004C642.597 272.66 641.667 274.907 641.667 277.25V283.875C641.667 284.461 641.434 285.022 641.02 285.437C640.606 285.851 640.044 286.083 639.458 286.083C638.873 286.083 638.311 285.851 637.897 285.437C637.483 285.022 637.25 284.461 637.25 283.875V277.25C637.25 273.736 638.646 270.366 641.131 267.881C643.616 265.396 646.986 264 650.5 264C654.014 264 657.384 265.396 659.869 267.881C662.354 270.366 663.75 273.736 663.75 277.25V283.875C663.75 284.461 663.517 285.022 663.103 285.437C662.689 285.851 662.127 286.083 661.542 286.083Z" fill="#A4A4A4"/>
<path d="M663.75 283.875H637.25C633.591 283.875 630.625 286.841 630.625 290.5V308.167C630.625 311.826 633.591 314.792 637.25 314.792H663.75C667.409 314.792 670.375 311.826 670.375 308.167V290.5C670.375 286.841 667.409 283.875 663.75 283.875Z" fill="#575757"/>
<path d="M650.5 308.167C649.914 308.167 649.352 307.934 648.938 307.52C648.524 307.106 648.292 306.544 648.292 305.958V299.333C648.292 298.748 648.524 298.186 648.938 297.772C649.352 297.358 649.914 297.125 650.5 297.125C651.086 297.125 651.647 297.358 652.061 297.772C652.476 298.186 652.708 298.748 652.708 299.333V305.958C652.708 306.544 652.476 307.106 652.061 307.52C651.647 307.934 651.086 308.167 650.5 308.167Z" fill="#A4A4A4"/>
<path d="M650.5 301.542C652.939 301.542 654.917 299.564 654.917 297.125C654.917 294.686 652.939 292.708 650.5 292.708C648.061 292.708 646.083 294.686 646.083 297.125C646.083 299.564 648.061 301.542 650.5 301.542Z" fill="#A4A4A4"/>
<g clip-path="url(#clip2_872_1071)">
<path fill-rule="evenodd" clip-rule="evenodd" d="M815 231.158V301.552C815 306.218 811.201 310 806.517 310H741.483C736.797 310 733 306.218 733 301.552V211.448C733 206.782 736.797 203 741.483 203H786.723L815 231.158Z" fill="#C1C1C1"/>
<path fill-rule="evenodd" clip-rule="evenodd" d="M815 229.581V233.085H791.885C787.098 233.085 784.891 229.207 784.891 224.423V203H788.392L815 229.581Z" fill="#7C7C7C"/>
</g>
<rect x="717" y="251" width="90" height="43" rx="7" fill="#DEDEDE"/>
<path d="M729.36 283.36C727.94 283.36 726.63 283.1 725.43 282.58C724.25 282.04 723.28 281.28 722.52 280.3L725.22 277.06C725.8 277.82 726.41 278.4 727.05 278.8C727.69 279.18 728.38 279.37 729.12 279.37C731.1 279.37 732.09 278.21 732.09 275.89V265.9H724.71V262H736.92V275.62C736.92 278.22 736.28 280.16 735 281.44C733.72 282.72 731.84 283.36 729.36 283.36ZM741.72 283V262H750.81C752.69 262 754.31 262.31 755.67 262.93C757.03 263.53 758.08 264.4 758.82 265.54C759.56 266.68 759.93 268.04 759.93 269.62C759.93 271.18 759.56 272.53 758.82 273.67C758.08 274.81 757.03 275.69 755.67 276.31C754.31 276.91 752.69 277.21 750.81 277.21H744.42L746.58 275.02V283H741.72ZM746.58 275.56L744.42 273.25H750.54C752.04 273.25 753.16 272.93 753.9 272.29C754.64 271.65 755.01 270.76 755.01 269.62C755.01 268.46 754.64 267.56 753.9 266.92C753.16 266.28 752.04 265.96 750.54 265.96H744.42L746.58 263.65V275.56ZM767.87 270.46H777.98V274.24H767.87V270.46ZM768.23 279.1H779.66V283H763.4V262H779.27V265.9H768.23V279.1ZM793.667 283.36C792.007 283.36 790.477 283.1 789.077 282.58C787.697 282.04 786.487 281.28 785.447 280.3C784.427 279.32 783.627 278.17 783.047 276.85C782.487 275.53 782.207 274.08 782.207 272.5C782.207 270.92 782.487 269.47 783.047 268.15C783.627 266.83 784.437 265.68 785.477 264.7C786.517 263.72 787.737 262.97 789.137 262.45C790.537 261.91 792.077 261.64 793.757 261.64C795.617 261.64 797.287 261.95 798.767 262.57C800.267 263.19 801.527 264.09 802.547 265.27L799.427 268.15C798.667 267.35 797.837 266.76 796.937 266.38C796.037 265.98 795.057 265.78 793.997 265.78C792.977 265.78 792.047 265.94 791.207 266.26C790.367 266.58 789.637 267.04 789.017 267.64C788.417 268.24 787.947 268.95 787.607 269.77C787.287 270.59 787.127 271.5 787.127 272.5C787.127 273.48 787.287 274.38 787.607 275.2C787.947 276.02 788.417 276.74 789.017 277.36C789.637 277.96 790.357 278.42 791.177 278.74C792.017 279.06 792.937 279.22 793.937 279.22C794.897 279.22 795.827 279.07 796.727 278.77C797.647 278.45 798.537 277.92 799.397 277.18L802.157 280.69C801.017 281.55 799.687 282.21 798.167 282.67C796.667 283.13 795.167 283.36 793.667 283.36ZM797.717 280.06V272.17H802.157V280.69L797.717 280.06Z" fill="white"/>
<path d="M822.542 286.083C821.956 286.083 821.394 285.851 820.98 285.437C820.566 285.022 820.333 284.461 820.333 283.875V277.25C820.333 274.907 819.403 272.66 817.746 271.004C816.09 269.347 813.843 268.417 811.5 268.417C809.157 268.417 806.91 269.347 805.254 271.004C803.597 272.66 802.667 274.907 802.667 277.25V283.875C802.667 284.461 802.434 285.022 802.02 285.437C801.606 285.851 801.044 286.083 800.458 286.083C799.873 286.083 799.311 285.851 798.897 285.437C798.483 285.022 798.25 284.461 798.25 283.875V277.25C798.25 273.736 799.646 270.366 802.131 267.881C804.616 265.396 807.986 264 811.5 264C815.014 264 818.384 265.396 820.869 267.881C823.354 270.366 824.75 273.736 824.75 277.25V283.875C824.75 284.461 824.517 285.022 824.103 285.437C823.689 285.851 823.127 286.083 822.542 286.083Z" fill="#A4A4A4"/>
<path d="M824.75 283.875H798.25C794.591 283.875 791.625 286.841 791.625 290.5V308.167C791.625 311.826 794.591 314.792 798.25 314.792H824.75C828.409 314.792 831.375 311.826 831.375 308.167V290.5C831.375 286.841 828.409 283.875 824.75 283.875Z" fill="#575757"/>
<path d="M811.5 308.167C810.914 308.167 810.352 307.934 809.938 307.52C809.524 307.106 809.292 306.544 809.292 305.958V299.333C809.292 298.748 809.524 298.186 809.938 297.772C810.352 297.358 810.914 297.125 811.5 297.125C812.086 297.125 812.647 297.358 813.061 297.772C813.476 298.186 813.708 298.748 813.708 299.333V305.958C813.708 306.544 813.476 307.106 813.061 307.52C812.647 307.934 812.086 308.167 811.5 308.167Z" fill="#A4A4A4"/>
<path d="M811.5 301.542C813.939 301.542 815.917 299.564 815.917 297.125C815.917 294.686 813.939 292.708 811.5 292.708C809.061 292.708 807.083 294.686 807.083 297.125C807.083 299.564 809.061 301.542 811.5 301.542Z" fill="#A4A4A4"/>
<g clip-path="url(#clip3_872_1071)">
<path fill-rule="evenodd" clip-rule="evenodd" d="M737 402.158V472.552C737 477.218 733.201 481 728.517 481H663.483C658.797 481 655 477.218 655 472.552V382.448C655 377.782 658.797 374 663.483 374H708.723L737 402.158Z" fill="#C1C1C1"/>
<path fill-rule="evenodd" clip-rule="evenodd" d="M737 400.581V404.085H713.885C709.098 404.085 706.891 400.207 706.891 395.423V374H710.392L737 400.581Z" fill="#7C7C7C"/>
</g>
<rect x="639" y="422" width="90" height="43" rx="7" fill="#DEDEDE"/>
<path d="M661.89 433H666.75V454H661.89V433ZM652.35 454H647.49V433H652.35V454ZM662.25 445.39H651.99V441.28H662.25V445.39ZM676.671 454L669.801 433H674.841L680.811 451.6H678.291L684.531 433H689.031L695.031 451.6H692.601L698.721 433H703.371L696.501 454H691.281L685.971 437.68H687.351L681.891 454H676.671ZM706.084 454V433H715.174C717.054 433 718.674 433.31 720.034 433.93C721.394 434.53 722.444 435.4 723.184 436.54C723.924 437.68 724.294 439.04 724.294 440.62C724.294 442.18 723.924 443.53 723.184 444.67C722.444 445.81 721.394 446.69 720.034 447.31C718.674 447.91 717.054 448.21 715.174 448.21H708.784L710.944 446.02V454H706.084ZM710.944 446.56L708.784 444.25H714.904C716.404 444.25 717.524 443.93 718.264 443.29C719.004 442.65 719.374 441.76 719.374 440.62C719.374 439.46 719.004 438.56 718.264 437.92C717.524 437.28 716.404 436.96 714.904 436.96H708.784L710.944 434.65V446.56Z" fill="white"/>
<path d="M744.542 457.083C743.956 457.083 743.394 456.851 742.98 456.437C742.566 456.022 742.333 455.461 742.333 454.875V448.25C742.333 445.907 741.403 443.66 739.746 442.004C738.09 440.347 735.843 439.417 733.5 439.417C731.157 439.417 728.91 440.347 727.254 442.004C725.597 443.66 724.667 445.907 724.667 448.25V454.875C724.667 455.461 724.434 456.022 724.02 456.437C723.606 456.851 723.044 457.083 722.458 457.083C721.873 457.083 721.311 456.851 720.897 456.437C720.483 456.022 720.25 455.461 720.25 454.875V448.25C720.25 444.736 721.646 441.366 724.131 438.881C726.616 436.396 729.986 435 733.5 435C737.014 435 740.384 436.396 742.869 438.881C745.354 441.366 746.75 444.736 746.75 448.25V454.875C746.75 455.461 746.517 456.022 746.103 456.437C745.689 456.851 745.127 457.083 744.542 457.083Z" fill="#A4A4A4"/>
<path d="M746.75 454.875H720.25C716.591 454.875 713.625 457.841 713.625 461.5V479.167C713.625 482.826 716.591 485.792 720.25 485.792H746.75C750.409 485.792 753.375 482.826 753.375 479.167V461.5C753.375 457.841 750.409 454.875 746.75 454.875Z" fill="#575757"/>
<path d="M733.5 479.167C732.914 479.167 732.352 478.934 731.938 478.52C731.524 478.106 731.292 477.544 731.292 476.958V470.333C731.292 469.748 731.524 469.186 731.938 468.772C732.352 468.358 732.914 468.125 733.5 468.125C734.086 468.125 734.647 468.358 735.061 468.772C735.476 469.186 735.708 469.748 735.708 470.333V476.958C735.708 477.544 735.476 478.106 735.061 478.52C734.647 478.934 734.086 479.167 733.5 479.167Z" fill="#A4A4A4"/>
<path d="M733.5 472.542C735.939 472.542 737.917 470.564 737.917 468.125C737.917 465.686 735.939 463.708 733.5 463.708C731.061 463.708 729.083 465.686 729.083 468.125C729.083 470.564 731.061 472.542 733.5 472.542Z" fill="#A4A4A4"/>
<g clip-path="url(#clip4_872_1071)">
<path fill-rule="evenodd" clip-rule="evenodd" d="M568 402.158V472.552C568 477.218 564.201 481 559.517 481H494.483C489.797 481 486 477.218 486 472.552V382.448C486 377.782 489.797 374 494.483 374H539.723L568 402.158Z" fill="#F1C6BC"/>
<path fill-rule="evenodd" clip-rule="evenodd" d="M568 400.581V404.085H544.885C540.098 404.085 537.891 400.207 537.891 395.423V374H541.392L568 400.581Z" fill="#CD4527"/>
</g>
<rect x="470" y="422" width="75" height="43" rx="7" fill="#CD4527"/>
<path d="M478.49 454V433H487.58C489.46 433 491.08 433.31 492.44 433.93C493.8 434.53 494.85 435.4 495.59 436.54C496.33 437.68 496.7 439.04 496.7 440.62C496.7 442.18 496.33 443.53 495.59 444.67C494.85 445.81 493.8 446.69 492.44 447.31C491.08 447.91 489.46 448.21 487.58 448.21H481.19L483.35 446.02V454H478.49ZM483.35 446.56L481.19 444.25H487.31C488.81 444.25 489.93 443.93 490.67 443.29C491.41 442.65 491.78 441.76 491.78 440.62C491.78 439.46 491.41 438.56 490.67 437.92C489.93 437.28 488.81 436.96 487.31 436.96H481.19L483.35 434.65V446.56ZM500.17 454V433H509.26C511.14 433 512.76 433.31 514.12 433.93C515.48 434.53 516.53 435.4 517.27 436.54C518.01 437.68 518.38 439.04 518.38 440.62C518.38 442.18 518.01 443.53 517.27 444.67C516.53 445.81 515.48 446.69 514.12 447.31C512.76 447.91 511.14 448.21 509.26 448.21H502.87L505.03 446.02V454H500.17ZM505.03 446.56L502.87 444.25H508.99C510.49 444.25 511.61 443.93 512.35 443.29C513.09 442.65 513.46 441.76 513.46 440.62C513.46 439.46 513.09 438.56 512.35 437.92C511.61 437.28 510.49 436.96 508.99 436.96H502.87L505.03 434.65V446.56ZM525.643 454V436.96H518.923V433H537.223V436.96H530.503V454H525.643Z" fill="white"/>
<path d="M575.833 457.667C575.259 457.667 574.708 457.438 574.301 457.032C573.895 456.626 573.667 456.075 573.667 455.5V449C573.667 446.701 572.754 444.497 571.128 442.872C569.503 441.246 567.299 440.333 565 440.333C562.701 440.333 560.497 441.246 558.872 442.872C557.246 444.497 556.333 446.701 556.333 449V455.5C556.333 456.075 556.105 456.626 555.699 457.032C555.292 457.438 554.741 457.667 554.167 457.667C553.592 457.667 553.041 457.438 552.635 457.032C552.228 456.626 552 456.075 552 455.5V449C552 445.552 553.37 442.246 555.808 439.808C558.246 437.37 561.552 436 565 436C568.448 436 571.754 437.37 574.192 439.808C576.63 442.246 578 445.552 578 449V455.5C578 456.075 577.772 456.626 577.365 457.032C576.959 457.438 576.408 457.667 575.833 457.667Z" fill="url(#paint1_linear_872_1071)"/>
<path d="M578 455.5H552C548.41 455.5 545.5 458.41 545.5 462V479.333C545.5 482.923 548.41 485.833 552 485.833H578C581.59 485.833 584.5 482.923 584.5 479.333V462C584.5 458.41 581.59 455.5 578 455.5Z" fill="#262262"/>
<path d="M565 479.333C564.426 479.333 563.874 479.105 563.468 478.699C563.062 478.292 562.833 477.741 562.833 477.167V470.667C562.833 470.092 563.062 469.541 563.468 469.135C563.874 468.728 564.426 468.5 565 468.5C565.575 468.5 566.126 468.728 566.532 469.135C566.939 469.541 567.167 470.092 567.167 470.667V477.167C567.167 477.741 566.939 478.292 566.532 478.699C566.126 479.105 565.575 479.333 565 479.333Z" fill="white"/>
<path d="M565 472.833C567.393 472.833 569.333 470.893 569.333 468.5C569.333 466.107 567.393 464.167 565 464.167C562.607 464.167 560.667 466.107 560.667 468.5C560.667 470.893 562.607 472.833 565 472.833Z" fill="white"/>
<circle cx="95.5" cy="200.5" r="89.5" fill="white" stroke="#CD4527" stroke-width="12"/>
<g clip-path="url(#clip5_872_1071)">
<path d="M126.046 172.334C126.046 191.761 112.499 202.891 95.7874 202.891C79.0758 202.891 65.5283 191.761 65.5283 172.334C65.5283 152.907 79.0758 132.539 95.7874 132.539C112.499 132.539 126.046 152.907 126.046 172.334Z" fill="black"/>
<path d="M145.715 219.534C145.715 245.143 124.162 273.622 94.9163 273.622C34.0025 266.813 27.1928 250.927 36.2893 218.399C45.3859 185.87 65.6709 187.743 94.9163 187.743C124.162 187.743 145.715 193.924 145.715 219.534Z" fill="black"/>
<path d="M115.324 172.632C115.324 184.748 106.179 198.352 94.899 198.352C83.6186 198.352 74.4741 184.748 74.4741 172.632C74.4741 160.516 83.6186 166.58 94.899 166.58C106.179 166.58 115.324 160.516 115.324 172.632Z" fill="white"/>
<path d="M117.593 168.093C117.593 171.436 106 185.492 95.0313 172.632C82.9276 187.383 71.4482 171.436 71.4482 168.093C71.4482 164.751 81.7782 162.042 94.5208 162.042C107.263 162.042 117.593 164.751 117.593 168.093Z" fill="black"/>
<path d="M89.9817 170.741C89.9817 172.83 87.2327 174.145 84.3082 174.145C81.3836 174.145 78.2563 170.939 78.2563 168.85C78.2563 166.761 79.8707 166.58 82.7952 166.58C85.7197 166.58 89.9817 168.652 89.9817 170.741Z" fill="white"/>
<g clip-path="url(#clip6_872_1071)">
<path d="M64.0156 172.334C64.0156 191.761 77.563 202.891 94.2746 202.891C110.986 202.891 124.534 191.761 124.534 172.334C124.534 152.907 110.986 132.539 94.2746 132.539C77.563 132.539 64.0156 152.907 64.0156 172.334Z" fill="black"/>
<path d="M36.5188 218.399C36.5188 244.008 65.9004 273.622 95.1457 273.622C156.06 266.813 162.869 250.927 153.773 218.399C144.676 185.87 124.391 187.743 95.1457 187.743C65.9004 187.743 36.5188 192.79 36.5188 218.399Z" fill="black"/>
<path d="M74.7386 172.632C74.7386 184.748 83.8832 198.352 95.1635 198.352C106.444 198.352 115.588 184.748 115.588 172.632C115.588 160.516 106.444 166.58 95.1635 166.58C83.8832 166.58 74.7386 160.516 74.7386 172.632Z" fill="white"/>
<path d="M72.4692 168.093C72.4692 171.436 82.2886 172.632 95.0312 172.632C107.135 187.383 118.614 171.436 118.614 168.093C118.614 164.751 108.284 162.042 95.5417 162.042C82.7991 162.042 72.4692 164.751 72.4692 168.093Z" fill="black"/>
<path d="M100.08 170.741C100.08 172.83 102.829 174.145 105.754 174.145C108.678 174.145 111.806 170.939 111.806 168.85C111.806 166.761 110.191 166.58 107.267 166.58C104.342 166.58 100.08 168.652 100.08 170.741Z" fill="white"/>
</g>
<path d="M58.922 217.643H128.871C130.387 217.643 131.594 218.913 131.515 220.428L128.882 271.111C128.809 272.518 127.647 273.622 126.238 273.622H61.5549C60.146 273.622 58.9839 272.518 58.9108 271.111L56.2779 220.428C56.1992 218.913 57.4057 217.643 58.922 217.643Z" fill="black" stroke="white" stroke-width="2.26943"/>
<rect x="59.4766" y="263.409" width="68.8394" height="2.26943" fill="white"/>
</g>
<rect x="26.6465" y="145.435" width="12" height="181.333" transform="rotate(-45 26.6465 145.435)" fill="#CD4527"/>
<path d="M294 200V204L294.825 196.086L294 200ZM194.828 61.1716C193.266 59.6095 190.734 59.6095 189.172 61.1716L163.716 86.6274C162.154 88.1895 162.154 90.7222 163.716 92.2843C165.278 93.8464 167.81 93.8464 169.373 92.2843L192 69.6569L214.627 92.2843C216.19 93.8464 218.722 93.8464 220.284 92.2843C221.846 90.7222 221.846 88.1895 220.284 86.6274L194.828 61.1716ZM188 64C188 66.6582 188.056 69.2732 188.166 71.8454L196.159 71.5041C196.054 69.0469 196 66.5457 196 64H188ZM189.548 87.4849C190.277 92.845 191.252 97.9947 192.446 102.939L200.222 101.061C199.093 96.3837 198.168 91.501 197.475 86.4067L189.548 87.4849ZM196.969 118.024C198.811 123.12 200.896 127.958 203.186 132.548L210.345 128.976C208.191 124.661 206.228 120.107 204.493 115.305L196.969 118.024ZM211.061 146.236C214.028 150.748 217.194 154.963 220.507 158.893L226.624 153.738C223.509 150.042 220.534 146.081 217.746 141.841L211.061 146.236ZM231.359 170.343C235.304 174.05 239.358 177.423 243.451 180.48L248.238 174.071C244.376 171.186 240.553 168.006 236.838 164.513L231.359 170.343ZM256.583 189.2C261.341 191.994 266.051 194.389 270.603 196.411L273.852 189.101C269.568 187.197 265.126 184.939 260.634 182.302L256.583 189.2ZM285.449 201.937C288.153 202.744 290.74 203.401 293.175 203.914L294.825 196.086C292.617 195.621 290.243 195.019 287.736 194.271L285.449 201.937ZM294 196H285.5V204H294V196ZM268.5 196H251.5V204H268.5V196ZM234.5 196H217.5V204H234.5V196ZM200.5 196H192V204H200.5V196Z" fill="#CD4527"/>
<path d="M466.99 486.287C467.148 484.084 465.491 482.169 463.287 482.01L427.38 479.425C425.177 479.267 423.262 480.924 423.103 483.128C422.945 485.331 424.602 487.246 426.806 487.405L458.723 489.702L456.425 521.62C456.267 523.823 457.924 525.738 460.128 525.897C462.331 526.055 464.246 524.398 464.405 522.194L466.99 486.287ZM174.418 498.577C214.374 532.351 256.022 557.203 303.552 559.779C351.18 562.361 403.799 542.54 465.618 489.024L460.382 482.976C399.474 535.703 348.814 554.221 303.985 551.791C259.059 549.356 219.071 525.846 179.582 492.467L174.418 498.577Z" fill="#CD4527"/>
<circle cx="95.5" cy="468.5" r="89.5" fill="white" stroke="#CD4527" stroke-width="12"/>
<g clip-path="url(#clip7_872_1071)">
<path fill-rule="evenodd" clip-rule="evenodd" d="M141 439.158V509.552C141 514.218 137.201 518 132.517 518H67.4828C62.7971 518 59 514.218 59 509.552V419.448C59 414.782 62.7971 411 67.4828 411H112.723L141 439.158Z" fill="#F1C6BC"/>
<path fill-rule="evenodd" clip-rule="evenodd" d="M141 437.581V441.085H117.885C113.098 441.085 110.891 437.207 110.891 432.423V411H114.392L141 437.581Z" fill="#CD4527"/>
</g>
<rect x="43" y="459" width="75" height="43" rx="7" fill="#CD4527"/>
<path d="M51.49 491V470H60.58C62.46 470 64.08 470.31 65.44 470.93C66.8 471.53 67.85 472.4 68.59 473.54C69.33 474.68 69.7 476.04 69.7 477.62C69.7 479.18 69.33 480.53 68.59 481.67C67.85 482.81 66.8 483.69 65.44 484.31C64.08 484.91 62.46 485.21 60.58 485.21H54.19L56.35 483.02V491H51.49ZM56.35 483.56L54.19 481.25H60.31C61.81 481.25 62.93 480.93 63.67 480.29C64.41 479.65 64.78 478.76 64.78 477.62C64.78 476.46 64.41 475.56 63.67 474.92C62.93 474.28 61.81 473.96 60.31 473.96H54.19L56.35 471.65V483.56ZM73.1697 491V470H82.2597C84.1397 470 85.7597 470.31 87.1197 470.93C88.4797 471.53 89.5297 472.4 90.2697 473.54C91.0097 474.68 91.3797 476.04 91.3797 477.62C91.3797 479.18 91.0097 480.53 90.2697 481.67C89.5297 482.81 88.4797 483.69 87.1197 484.31C85.7597 484.91 84.1397 485.21 82.2597 485.21H75.8697L78.0297 483.02V491H73.1697ZM78.0297 483.56L75.8697 481.25H81.9897C83.4897 481.25 84.6097 480.93 85.3497 480.29C86.0897 479.65 86.4597 478.76 86.4597 477.62C86.4597 476.46 86.0897 475.56 85.3497 474.92C84.6097 474.28 83.4897 473.96 81.9897 473.96H75.8697L78.0297 471.65V483.56ZM98.6427 491V473.96H91.9227V470H110.223V473.96H103.503V491H98.6427Z" fill="white"/>
<defs>
<linearGradient id="paint0_linear_872_1071" x1="334.5" y1="46.3263" x2="334.5" y2="61.3477" gradientUnits="userSpaceOnUse">
<stop stop-color="#5D5C66"/>
<stop offset="1" stop-color="#48474F"/>
</linearGradient>
<linearGradient id="paint1_linear_872_1071" x1="565" y1="436.414" x2="565" y2="455.465" gradientUnits="userSpaceOnUse">
<stop stop-color="#5D5C66"/>
<stop offset="1" stop-color="#48474F"/>
</linearGradient>
<clipPath id="clip0_872_1071">
<rect width="82" height="107" fill="white" transform="translate(411 203)"/>
</clipPath>
<clipPath id="clip1_872_1071">
<rect width="82" height="107" fill="white" transform="translate(572 203)"/>
</clipPath>
<clipPath id="clip2_872_1071">
<rect width="82" height="107" fill="white" transform="translate(733 203)"/>
</clipPath>
<clipPath id="clip3_872_1071">
<rect width="82" height="107" fill="white" transform="translate(655 374)"/>
</clipPath>
<clipPath id="clip4_872_1071">
<rect width="82" height="107" fill="white" transform="translate(486 374)"/>
</clipPath>
<clipPath id="clip5_872_1071">
<rect width="124.062" height="146" fill="white" transform="translate(33 128)"/>
</clipPath>
<clipPath id="clip6_872_1071">
<rect width="61.2746" height="146" fill="white" transform="matrix(-1 0 0 1 157.062 128)"/>
</clipPath>
<clipPath id="clip7_872_1071">
<rect width="82" height="107" fill="white" transform="translate(59 411)"/>
</clipPath>
</defs>
</svg>
